<?xml version="1.0" encoding="UTF-8" standalone="no"?>
<svg
   version="1.1"
   width="720"
   height="540"
   id="svg17"
   sodipodi:docname="readme-banner-vector-no-tools.svg"
   inkscape:version="1.4 (86a8ad7, 2024-10-11)"
   xmlns:inkscape="http://www.inkscape.org/namespaces/inkscape"
   xmlns:sodipodi="http://sodipodi.sourceforge.net/DTD/sodipodi-0.dtd"
   xmlns="http://www.w3.org/2000/svg"
   xmlns:svg="http://www.w3.org/2000/svg">
  <defs
     id="defs17" />
  <sodipodi:namedview
     id="namedview17"
     pagecolor="#ffffff"
     bordercolor="#000000"
     borderopacity="0.25"
     inkscape:showpageshadow="2"
     inkscape:pageopacity="0.0"
     inkscape:pagecheckerboard="0"
     inkscape:deskcolor="#d1d1d1"
     inkscape:zoom="1.0567318"
     inkscape:cx="313.22991"
     inkscape:cy="240.8369"
     inkscape:window-width="1920"
     inkscape:window-height="1009"
     inkscape:window-x="-8"
     inkscape:window-y="-8"
     inkscape:window-maximized="1"
     inkscape:current-layer="svg17" />
  <path
     d="m 474,345 c -0.59659,9.1022 -2.523,17.84395 -4.43926,26.73963 -0.60625,2.81627 -1.20522,5.63401 -1.8023,8.45223 -1.69755,8.00576 -3.40849,16.00863 -5.12294,24.01078 -1.05186,4.91193 -2.0958,9.82549 -3.13516,14.74007 -0.39598,1.86409 -0.79506,3.72752 -1.19738,5.59025 -0.56286,2.60616 -1.11569,5.21427 -1.66649,7.823 -0.16674,0.75969 -0.33348,1.51938 -0.50527,2.30209 -1.01538,4.87461 -1.27843,9.36172 -1.1312,14.34195 3.82989,1.8023 6.78122,2.19622 11,2 -0.0277,6.11002 -0.92173,10.14 -5.28906,14.55859 -5.94114,5.00521 -11.90989,4.96905 -19.45703,4.79297 C 435.6875,469.75015 433.24788,467.37924 429.625,463.375 428,461 428,461 428,459 c -0.79664,0.62648 -1.59328,1.25297 -2.41406,1.89844 -1.06998,0.82595 -2.14031,1.65144 -3.21094,2.47656 -0.52207,0.4125 -1.04414,0.825 -1.58203,1.25 -7.99131,6.1168 -16.03872,6.2027 -25.79297,5.375 -6.14326,-1.57592 -10.68405,-5.65646 -14,-11 -5.91993,-13.05628 -2.83995,-32.93894 2,-46 5.30413,-13.18072 12.81568,-25.47398 26,-32 5.04681,-1.7486 9.75331,-2.3649 15.0625,-2.375 0.68127,-0.0245 1.36254,-0.049 2.06445,-0.0742 5.67772,-0.0327 6.66701,0.97852 11.87305,4.44922 2.64,-11.55 5.28,-23.1 8,-35 9.67462,-1.93492 18.23903,-3.15494 28,-3 z m -52,49 c -5.78581,6.34095 -9.18596,13.9805 -12,22 -0.32098,0.89977 -0.64195,1.79953 -0.97266,2.72656 -1.99839,6.59936 -2.30261,12.99053 -2.33984,19.83594 -0.006,0.88172 -0.0111,1.76344 -0.0168,2.67187 -0.0185,5.18223 -0.0185,5.18223 2.32935,9.76563 3.55067,1.12976 5.50773,1.16074 9.0625,0 10.32355,-7.0288 11.68857,-20.63119 14.15454,-32.02124 0.47211,-2.17387 0.95619,-4.34484 1.44116,-6.51587 0.30606,-1.39763 0.61143,-2.79541 0.91602,-4.19336 0.27417,-1.25192 0.54833,-2.50384 0.83081,-3.7937 1.18154,-5.8927 1.18154,-5.8927 -0.65503,-11.28833 -4.53593,-3.07795 -8.34032,-2.31218 -12.75,0.8125 z"
     fill="#000000"
     id="path1" />
  <path
     d="m 343,370 c 1.48765,2.89984 2.2557,5.83959 3,9 0.495,1.485 0.495,1.485 1,3 3.88591,-3.16295 7.50033,-6.40312 11,-10 2,-2 2,-2 5.625,-2.125 1.67062,0.0619 1.67062,0.0619 3.375,0.125 1.42514,2.85028 1.25989,4.8248 1,8 -1.42578,3.32422 -1.42578,3.32422 -3.3125,6.6875 -0.61488,1.11762 -1.22977,2.23523 -1.86328,3.38672 -1.47905,2.37217 -2.64857,4.20111 -4.82422,5.92578 -0.66,0 -1.32,0 -2,0 -0.24879,0.56074 -0.49758,1.12148 -0.75391,1.69922 -1.45016,2.67758 -3.21799,4.78897 -5.18359,7.11328 -3.1989,3.95124 -5.27565,7.3955 -7.0625,12.1875 -0.9734,2.04442 -1.95329,4.08576 -2.9375,6.125 -2.58589,5.55679 -4.52463,11.11054 -6.20313,17 C 333,441 333,441 331.92969,443.54297 c -1.00425,2.65409 -1.32892,4.9474 -1.55469,7.76953 -0.0748,0.88301 -0.14953,1.76602 -0.22656,2.67578 -0.049,0.66387 -0.098,1.32774 -0.14844,2.01172 5.69089,-1.64736 10.75773,-4.29736 16,-7 1.99213,-1.01559 3.99115,-2.0179 6,-3 1.17563,-0.5775 2.35125,-1.155 3.5625,-1.75 3.50072,-1.27299 4.99846,-1.56493 8.4375,-0.25 0.33,0.66 0.66,1.32 1,2 -3.36884,4.31262 -6.8141,7.72303 -11.3125,10.875 -0.60103,0.42201 -1.20205,0.84401 -1.82129,1.27881 -19.67634,13.446 -19.67634,13.446 -29.94043,12.42822 C 320,470 320,470 317.4375,468 314.36829,461.59469 314.90772,455.79643 316,449 c -0.67869,0.45826 -0.67869,0.45826 -1.37109,0.92578 -1.50595,1.01061 -3.01709,2.01348 -4.53125,3.01172 -2.40633,1.60219 -4.7872,3.23011 -7.16407,4.875 -1.47745,1.0006 -2.95532,2.0006 -4.43359,3 -0.69924,0.49218 -1.39847,0.98436 -2.1189,1.49146 -4.94658,3.30519 -9.35879,4.96755 -15.3811,4.69604 -5.11116,-1.78891 -7.25092,-3.82671 -9.9375,-8.5 -3.6748,-8.3507 -2.88139,-15.8215 0,-24.3125 0.94696,-2.40874 1.92779,-4.80438 2.9375,-7.1875 0.26764,-0.64469 0.53528,-1.28938 0.81104,-1.95361 C 278.18282,417.00507 281.78913,410.23847 288,404 c 1.21646,-1.38875 2.4248,-2.78467 3.625,-4.1875 C 301.66985,388.17517 316.02227,372.89069 331,368 c 0.825,-0.28875 1.65,-0.5775 2.5,-0.875 3.98511,-0.19926 6.13313,0.75512 9.5,2.875 z m -14,9 c 0,0.66 0,1.32 0,2 -0.53754,0.19852 -1.07508,0.39703 -1.62891,0.60156 -3.41362,2.01331 -5.70315,4.81995 -8.30859,7.77344 -5.43611,6.12674 -5.43611,6.12674 -8.64063,8.67578 -10.76415,8.66341 -16.77526,22.53861 -22.73437,34.63672 C 286,436 286,436 284.1875,438.0625 282.28627,441.16451 283.21663,443.56523 284,447 c 0.9755,2.81862 0.9755,2.81862 2,5 11.75704,-0.80162 24.75433,-7.14326 32.58203,-15.88281 4.8654,-6.27244 7.56578,-12.44741 8.88281,-20.33985 0.50932,-2.64325 1.30158,-4.41788 2.53516,-6.77734 0.31169,-1.34535 0.58093,-2.70107 0.8125,-4.0625 0.76583,-3.86081 2.11719,-6.89223 3.9375,-10.375 2.7575,-5.69188 2.25161,-9.68516 0.25,-15.5625 -3.04913,-1.01111 -3.04913,-1.01111 -6,0 z"
     fill="#000000"
     id="path2" />
  <path
     d="M 695.9375,367.25 C 697,369 697,369 696.9375,371.5625 696,374 696,374 694.36816,375.09424 c -3.06567,1.17254 -5.93209,1.4826 -9.19629,1.83545 -1.36397,0.15429 -2.7279,0.30901 -4.09179,0.46411 -0.70826,0.0781 -1.41652,0.15624 -2.14624,0.23672 -22.34278,1.30741 -22.34278,1.30741 -41.29322,11.26401 -2.50602,3.21607 -4.54869,6.67641 -6.63281,10.17578 -3.07789,4.49109 -6.91174,8.07976 -10.84765,11.8125 -0.71286,0.69867 -1.42571,1.39735 -2.16016,2.11719 0,0.33 0,0.66 0,1 5.59241,0.20825 10.55077,-0.55439 16.00391,-1.75 0.84151,-0.17757 1.68302,-0.35514 2.55003,-0.53809 2.67099,-0.56398 5.33992,-1.13694 8.00856,-1.71191 2.67228,-0.57461 5.34492,-1.14701 8.01927,-1.71191 1.65851,-0.35037 3.31587,-0.70621 4.97183,-1.06836 4.2,-0.88775 8.1296,-1.60512 12.4464,-1.21973 2.875,2 2.875,2 5,4 -0.30035,2.77824 -0.52216,4.5034 -2.49219,6.55078 -3.62415,2.09433 -7.28992,2.60857 -11.38281,3.32422 -5.63808,1.03973 -11.24111,2.11781 -16.80859,3.49219 C 633.60506,426.00962 624.0507,427.69356 613,427 c -3.00374,-0.35128 -3.00374,-0.35128 -4.53516,1.51562 -3.43827,5.83132 -5.94143,14.43334 -5.14453,21.20704 1.29795,3.12794 2.69195,4.72467 5.64844,6.3789 8.49661,3.20119 16.78226,3.21197 25.53125,1.27344 0.86222,-0.18313 1.72444,-0.36625 2.61279,-0.55493 11.36979,-2.48617 22.51532,-5.22304 32.79737,-10.81226 3.07533,-1.48305 5.69231,-1.86323 9.08984,-2.00781 1,1 1,1 1.3125,3.25 -0.50036,4.40318 -3.22447,6.86609 -6.58203,9.59375 C 657.33577,467.52171 632.55536,473.39285 613,470 603.7173,467.18106 595.67454,462.59661 590.85547,453.94531 587.66198,445.24258 588.75356,437.54385 592,429 c 4.00919,-8.3623 9.01585,-15.56198 14.84375,-22.72949 6.38772,-7.90459 13.05958,-16.97122 17.03125,-26.33301 3.54615,-6.10726 11.78882,-9.52708 18.125,-11.9375 4.14335,-0.59033 8.18853,-0.90574 12,1 2.15709,-0.40202 4.30129,-0.87372 6.4375,-1.375 6.19734,-1.35315 12.29208,-2.046 18.625,-2.375 0.79656,-0.0443 1.59312,-0.0886 2.41382,-0.13428 10.45077,-0.45308 10.45077,-0.45308 14.46118,2.13428 z"
     fill="#000000"
     id="path3" />
  <path
     d="M 267.9375,367.25 C 269,369 269,369 268.9375,371.5625 268,374 268,374 266.36816,375.09424 c -3.06567,1.17254 -5.93209,1.4826 -9.19629,1.83545 -1.36397,0.15429 -2.7279,0.30901 -4.09179,0.46411 -0.70826,0.0781 -1.41652,0.15624 -2.14624,0.23672 C 227.17385,379.04203 227.17385,379.04203 208,391 c -2.00488,2.65255 -3.9378,5.34033 -5.83594,8.07031 -3.12321,4.22818 -6.65991,7.98703 -10.25781,11.8125 -2.01777,1.76623 -2.01777,1.76623 -1.90625,3.11719 5.59241,0.20825 10.55077,-0.55439 16.00391,-1.75 0.84151,-0.17757 1.68302,-0.35514 2.55003,-0.53809 2.67099,-0.56398 5.33992,-1.13694 8.00856,-1.71191 2.67228,-0.57461 5.34492,-1.14701 8.01927,-1.71191 1.65851,-0.35037 3.31587,-0.70621 4.97183,-1.06836 4.2,-0.88775 8.1296,-1.60512 12.4464,-1.21973 2.875,2 2.875,2 5,4 -0.1875,2.3125 -0.1875,2.3125 -1,5 -4.5404,3.65493 -10.1203,4.32133 -15.6875,5.4375 -2.07833,0.4287 -4.15645,0.85839 -6.23438,1.28906 -1.02931,0.21173 -2.05863,0.42346 -3.11914,0.6416 -2.65237,0.56637 -5.2813,1.18454 -7.91211,1.84278 -9.91298,2.45703 -18.82105,3.2441 -29.04687,2.78906 -0.99,0 -1.98,0 -3,0 -3.27961,6.71539 -6.77715,14.95243 -5.61328,22.51172 1.28475,3.14503 2.60462,4.91677 5.57812,6.60156 8.52273,3.16045 16.76803,3.20427 25.53516,1.26172 0.86222,-0.18313 1.72444,-0.36625 2.61279,-0.55493 11.36268,-2.48461 22.52749,-5.20855 32.79346,-10.81616 3.04347,-1.45928 5.74541,-1.78554 9.09375,-2.00391 0.75,1.625 0.75,1.625 1,4 -4.92496,9.25892 -13.42167,13.59288 -23,17 -15.73528,4.72058 -37.5434,9.7914 -52.875,1.9375 -7.26474,-4.25128 -12.05488,-8.81965 -14.65625,-16.91797 -2.5384,-10.93628 1.82016,-21.82837 7.50781,-31.00781 4.04732,-6.0241 8.45552,-11.74821 12.94141,-17.44922 5.30076,-6.74004 10.64412,-13.5615 13.89453,-21.5625 3.64233,-6.13444 11.77106,-9.55905 18.1875,-12 4.14335,-0.59033 8.18853,-0.90574 12,1 2.15709,-0.40202 4.30129,-0.87372 6.4375,-1.375 6.19734,-1.35315 12.29208,-2.046 18.625,-2.375 0.79656,-0.0443 1.59312,-0.0886 2.41382,-0.13428 10.45077,-0.45308 10.45077,-0.45308 14.46118,2.13428 z"
     fill="#000000"
     id="path4" />
  <path
     d="m 492.375,364.75 c 0.79148,-0.0258 1.58297,-0.0516 2.39844,-0.0781 C 497,365 497,365 498.69141,366.21875 c 1.56373,2.12855 2.13689,3.99423 2.87109,6.53125 1.7376,5.07299 4.13586,9.03175 7.1875,13.375 5.0589,7.24415 8.7123,14.78785 12.31201,22.8335 1.94876,4.24141 4.13945,8.36468 6.29736,12.50244 2.19619,4.73748 3.91651,9.61349 5.64063,14.53906 7.08158,-14.44901 14.07699,-28.9251 20.625,-43.625 0.48372,-1.08128 0.96744,-2.16256 1.46582,-3.27661 2.59217,-5.86893 4.92296,-11.73845 6.93018,-17.83423 1.02678,-2.37465 1.96594,-3.6585 3.979,-5.26416 2.19141,-0.32813 2.19141,-0.32813 4.5625,-0.25 0.78504,0.0155 1.57008,0.0309 2.37891,0.0469 C 575,366 575,366 577,367 c 0.95985,2.87956 1.14536,4.77499 1.18945,7.77173 0.0167,0.96853 0.0334,1.93707 0.0507,2.93495 0.0136,1.04683 0.0272,2.09367 0.0411,3.17223 0.0184,1.08184 0.0368,2.16368 0.0558,3.2783 0.0588,3.46838 0.11153,6.9368 0.16296,10.40529 0.0516,3.44349 0.10471,6.88692 0.16296,10.33031 0.0362,2.14256 0.0688,4.2852 0.0969,6.42788 0.0937,5.55113 0.40291,11.00753 1.00952,16.52631 0.27213,2.54087 0.41659,5.07236 0.51184,7.62566 0.0374,0.91974 0.0748,1.83949 0.11328,2.78711 0.0705,1.87239 0.14077,3.74478 0.21094,5.61718 0.24432,9.70376 0.24432,9.70376 1.99023,19.20533 C 583,465 583,465 582,467.75 c -2,2.25 -2,2.25 -5.5625,2.75 -1.13437,-0.165 -2.26875,-0.33 -3.4375,-0.5 -2.11337,-3.17006 -2.27397,-4.10682 -2.39478,-7.75928 -0.0367,-0.96465 -0.0733,-1.9293 -0.11109,-2.92318 -0.0303,-1.04065 -0.0606,-2.0813 -0.0918,-3.15348 -0.0392,-1.0715 -0.0784,-2.143 -0.11876,-3.24698 -0.12422,-3.43045 -0.23586,-6.86115 -0.34608,-10.29208 -0.11561,-3.42368 -0.23393,-6.84723 -0.3568,-10.27066 -0.0759,-2.13117 -0.14733,-4.2625 -0.21377,-6.39398 -0.0335,-0.97096 -0.067,-1.94191 -0.10155,-2.94229 -0.0273,-0.85033 -0.0546,-1.70066 -0.0827,-2.57676 C 568.99211,417.89464 568.51748,415.49827 568,413 c -0.0677,-1.96118 -0.0851,-3.9245 -0.0625,-5.88672 0.008,-1.10279 0.0155,-2.20558 0.0234,-3.3418 0.0129,-1.14146 0.0258,-2.28293 0.0391,-3.45898 0.0254,-2.27469 0.0465,-4.54944 0.0625,-6.82422 0.0116,-1.00506 0.0232,-2.01013 0.0352,-3.04565 0.0697,-2.45059 0.0697,-2.45059 -1.09766,-4.44263 -10.80818,18.65803 -23.01032,41.80789 -27.33984,63.03516 -0.84718,2.52148 -1.77767,4.07393 -3.66016,5.96484 -2.375,0.3125 -2.375,0.3125 -5,0 -0.86625,-0.0825 -1.7325,-0.165 -2.625,-0.25 -3.03994,-0.95998 -3.82507,-1.99564 -5.375,-4.75 -0.66797,-2.24219 -0.66797,-2.24219 -1.1875,-4.875 C 516.88433,424.24978 507.73359,403.5079 497,385 c -3.26387,33.31316 -3.26387,33.31316 -4.82422,66.73828 -0.0964,4.17239 -0.46266,8.15112 -1.17578,12.26172 -4.40909,2.08207 -4.40909,2.08207 -7.25,1.6875 C 482,465 482,465 481,464 c -0.71519,-13.32769 0.57136,-26.44069 2.0802,-39.66772 2.13244,-18.76869 3.69661,-37.34507 3.79382,-56.24244 0.22933,-3.80428 2.13867,-3.27455 5.50098,-3.33984 z"
     fill="#000000"
     id="path5" />
  <path
     d="m 112,382 c 8.91,0 17.82,0 27,0 0,6 0,6 -1,8 0.77086,-0.49371 1.54172,-0.98742 2.33594,-1.49609 1.00289,-0.64067 2.00578,-1.28133 3.03906,-1.94141 1.4966,-0.95713 1.4966,-0.95713 3.02344,-1.93359 C 151.77406,381.26309 156.73478,381.26388 163,382 c 4.00198,1.90208 6.3167,4.95708 8,9 0.73285,4.68684 0.44403,8.14366 -1.75,12.375 -2.66067,3.10411 -4.60133,5.3359 -8.72266,6.05859 -1.28197,0.002 -1.28197,0.002 -2.58984,0.004 -1.28584,0.029 -1.28584,0.029 -2.59766,0.0586 C 153,409 153,409 151.23437,407.20703 149.55992,404.21316 149.32535,401.38364 149,398 c -1.21688,0.2475 -2.43375,0.495 -3.6875,0.75 -0.68449,0.13922 -1.36898,0.27844 -2.07422,0.42187 -3.05032,1.12857 -4.87922,2.57853 -7.23828,4.82813 -1.24008,3.06681 -1.24008,3.06681 -1.85278,6.60449 -0.20592,0.98111 -0.20592,0.98111 -0.416,1.98204 -0.44638,2.15004 -0.86425,4.30458 -1.282,6.46034 -0.30499,1.4968 -0.61176,2.99324 -0.92021,4.48932 -0.80512,3.92896 -1.58614,7.86234 -2.3622,11.79712 -0.79693,4.01815 -1.61662,8.03165 -2.43439,12.0456 C 125.13267,455.24826 123.56047,463.12276 122,471 c -9.24,0 -18.48,0 -28,0 0.63407,-6.34075 1.31325,-12.23195 2.67407,-18.38721 0.16596,-0.77199 0.33192,-1.54398 0.5029,-2.33937 0.54126,-2.51157 1.09026,-5.02138 1.63944,-7.53123 0.38019,-1.75681 0.7599,-3.51371 1.13914,-5.27072 0.99301,-4.59424 1.99262,-9.18702 2.99367,-13.77951 1.02292,-4.69853 2.0395,-9.39843 3.05664,-14.09821 C 107.99775,400.39449 109.99722,391.1969 112,382 Z"
     fill="#000000"
     id="path6" />
  <path
     id="path7"
     style="fill:#ff0000"
     d="m 49.070256,353.83913 c -2.210114,0.53792 -4.110149,1.67006 -5.672316,3.13141 -0.239254,0.78445 -0.477409,1.56939 -0.713399,2.35464 -0.501498,-0.20945 -1.034755,-0.20854 -1.526803,0.3093 l -0.0023,-10e-4 c -0.174706,0.28426 -0.293059,0.59757 -0.445653,0.89442 0.06346,0.41637 0.666011,0.77119 1.18289,1.13529 -0.01757,0.0288 -0.04409,0.0498 -0.06113,0.0792 -0.456505,0.78352 -0.470768,1.24282 -0.625061,2.08991 0.03837,0.27097 -0.136397,0.70769 0.115724,0.81408 0.711551,0.30023 1.444121,0.56289 2.19082,0.77537 -0.150823,0.023 -0.296375,0.0414 -0.448071,0.0668 -0.0235,-0.0154 -0.04691,-0.0321 -0.07505,-0.0441 -0.391079,-0.16502 -0.881732,-0.36841 -1.367809,-0.49929 -0.698633,-0.22126 -1.441692,-0.32873 -2.153269,-0.34028 -0.05089,-5.8e-4 -0.06484,0.0272 -0.09642,0.0416 -0.01839,0.13173 -0.01096,0.26756 -0.02519,0.40013 0.07661,0.19352 0.192058,0.41804 0.368522,0.68824 0.01414,0.18877 0.09536,0.38332 0.207657,0.58063 -0.239648,0.0957 -0.450838,0.23917 -0.680077,0.35248 0.01873,0.91342 0.119119,1.83563 0.343313,2.75677 l 0.254962,1.04754 c 0.191331,-0.32264 0.407851,-0.62435 0.728392,-1.112 0.119129,-0.10711 0.232064,-0.22358 0.346019,-0.33749 0.598814,1.61647 1.034206,2.79965 1.893811,4.65087 0.0021,0.005 0.0033,0.0102 0.0056,0.0147 0.048,0.73824 0.09321,1.47711 0.139203,2.21546 -0.356863,-0.9552 -0.705541,-1.91489 -1.038435,-2.87905 -0.420497,0.12498 -0.923235,0.14546 -1.407158,0.18972 l 9.468181,38.90146 c 0.0106,-0.0334 0.01693,-0.0678 0.02763,-0.10121 0.0019,0.0289 0.0058,0.0577 0.007,0.0868 0.0026,0.0439 0.0022,0.12698 0.0046,0.17578 l 1.545465,6.34978 c 0.11696,0.48056 0.316743,0.91566 0.484123,1.36968 0.732577,0.24205 1.469005,0.47483 2.205993,0.69731 -0.274218,0.62824 -0.987636,1.32588 -0.99554,1.33583 -0.04745,0.0597 -0.09822,0.11683 -0.146053,0.17626 0.590394,0.96982 1.271442,1.86685 2.079261,2.63779 0.01449,-0.0176 0.02888,-0.0353 0.04344,-0.0528 0.754996,0.21612 0.530318,0.34892 1.68589,-1.58826 0.232955,-0.32483 -0.05919,0.0849 0.129487,-0.17827 0.406427,0.0928 0.9495,0.16045 1.721842,0.24428 -0.957737,0.57415 -1.924706,1.13358 -2.903386,1.67353 -0.177092,0.025 -0.354603,0.0416 -0.531889,0.0611 1.08167,0.99864 2.33935,1.77412 3.687832,2.35886 0.592223,-0.39549 1.182669,-0.79344 1.768726,-1.19838 -0.0305,0.40042 -0.06174,0.81658 -0.01226,1.13068 0.04022,0.25542 0.156281,0.49256 0.247428,0.73579 1.096206,0.27531 2.219401,0.4495 3.375865,0.42465 -0.04194,-0.1246 -0.114556,-0.2407 -0.138385,-0.37036 -0.11034,-0.60051 -0.09665,-1.51538 0.230152,-2.1928 0.06836,-0.002 0.136793,0.003 0.205114,3.9e-4 0.346262,-0.0116 0.692007,-0.0327 1.038183,-0.0456 0.02719,0.0821 0.06457,0.16497 0.07995,0.24589 1.311177,0.4532 2.603722,0.96833 3.925536,1.38638 l 6.169499,-1.50159 c 0.02286,-0.0244 0.04572,-0.0486 0.06869,-0.073 l 4.58e-4,0.002 c 0.02721,0.0104 0.0597,0.0213 0.09028,0.0323 l 42.24335,-10.28156 c -0.2656,-0.0894 -0.51592,-0.18322 -0.70016,-0.29995 -0.006,0.007 -0.0109,0.0133 -0.0172,0.0203 -0.0284,0.005 -0.0571,0.008 -0.0854,0.0127 -0.10955,-0.17312 -0.23735,-0.36029 -0.34012,-0.53031 0.61737,-0.0935 1.23531,-0.18218 1.85296,-0.27409 0.10157,0.0101 0.20347,0.0193 0.30489,0.0304 0.18517,0.0198 0.37027,0.0258 0.55539,0.0437 0.28154,0.0486 0.47416,0.0816 0.79119,0.13713 0.30797,0.0378 0.51585,0.0654 0.77153,0.0977 l 49.87031,-12.13787 c 0.0166,-0.0286 0.0383,-0.0661 0.0508,-0.0888 0.19774,-0.35691 0.40226,-0.70486 0.60345,-1.05545 0.48061,-0.199 1.02443,-0.45696 1.54717,-0.68814 2.42748,-0.26292 4.86317,-0.51724 7.28303,-0.86603 0.40648,0.055 0.78673,0.0548 1.19218,0.0998 l 5.35159,-1.30252 c -0.0653,-0.009 -0.13069,-0.0187 -0.19595,-0.0287 0.25272,-0.0636 0.50997,-0.10568 0.76186,-0.17337 0.67183,-0.16969 3.43377,-0.86103 4.14499,-1.06512 0.43098,-0.12363 1.58694,-0.0918 1.27926,-0.4179 -0.0111,-0.0119 -0.0205,-0.0188 -0.0315,-0.0305 0.2862,-0.001 0.45074,-0.0206 0.28481,-0.0934 -0.21419,-0.094 -0.43937,-0.16588 -0.65688,-0.25421 -0.10189,-0.0947 -0.20941,-0.20805 -0.30754,-0.28899 1.20624,0.0581 2.4007,0.1287 3.59476,0.19243 l 20.73833,-5.04748 c 0.18948,-0.0645 0.37716,-0.1344 0.56685,-0.19826 0.35124,-0.11822 0.71128,-0.22815 1.06939,-0.33867 0.38431,-0.0164 0.55798,-0.0332 0.77198,-0.0492 l 0.5769,-0.14042 c 0.0283,-0.0544 0.0259,-0.12577 -0.007,-0.22742 10e-4,-0.009 3.9e-4,-0.0188 10e-4,-0.0284 0.32554,-0.1097 0.65522,-0.21094 0.97086,-0.33881 -0.53803,-0.14231 -1.0686,-0.32116 -1.60139,-0.49268 -0.0466,-0.0278 -0.0927,-0.0564 -0.14255,-0.0819 0.84172,-0.13488 1.67706,-0.30236 2.51358,-0.46704 1.07213,0.0702 2.14594,-0.0764 3.20419,-0.30548 0.0175,0.31998 0.0546,0.50794 0.0903,0.71776 l 28.7847,-7.00588 c -0.13977,9.3e-4 -0.27948,0.004 -0.41927,0.004 0.0415,-0.12641 0.0726,-0.25158 0.0861,-0.36469 0.3718,0.0893 0.75005,0.14182 1.13208,0.16669 l 15.3526,-3.73664 c -0.17733,-0.11338 -0.33836,-0.24796 -0.516,-0.36087 0.23586,-0.1101 0.47192,-0.21945 0.70742,-0.33098 0.48832,0.13581 0.98584,0.21291 1.48426,0.28399 l 0.6737,-0.16396 c -2e-4,-0.009 0.004,-0.0153 0.004,-0.025 0.022,0.002 0.0442,0.005 0.0663,0.008 l 6.79006,-1.65263 c -0.0358,-0.26048 -0.14114,-0.49027 -0.47849,-1.05746 0.0224,7.2e-4 0.0448,0.003 0.0672,0.004 0.58479,0.0236 1.16671,-0.0895 1.75026,-0.13453 0.11628,-0.18049 0.41727,-0.35653 0.43965,-0.53918 0.1829,0.0522 0.26082,0.0733 0.43173,0.12206 0.46977,0.23404 0.93941,0.46961 1.40436,0.71553 0.004,0.002 0.007,0.005 0.0117,0.008 l 2.00399,-0.48776 c -0.36965,-0.28168 -0.73589,-0.56772 -1.10078,-0.85574 0.36092,-0.0532 0.69206,-0.14702 0.92048,-0.3145 0.83002,-0.117 1.66232,-0.21917 2.49375,-0.32554 0.352,0.24275 0.71332,0.44575 1.06829,0.6727 l 1.75351,-0.42678 c -0.039,-0.0468 -0.088,-0.0766 -0.12523,-0.12631 -0.1398,-0.112 -0.33296,-0.26251 -0.50439,-0.39585 0.0612,-0.008 0.12266,-0.0133 0.18391,-0.0206 0.35306,0.16305 0.73201,0.26976 1.10802,0.38162 l 19.26949,-4.68999 c -0.0315,-0.008 -0.0653,-0.0156 -0.0961,-0.0229 0.001,-0.006 0.005,-0.012 0.008,-0.0179 l 0.24101,-0.0587 c 0.0563,0.008 0.12056,0.0111 0.17752,0.0191 l 3.29635,-0.8023 c 1.39275,-0.33898 2.64305,-0.94487 3.79493,-1.67745 0.0403,-0.0761 0.0809,-0.15228 0.12128,-0.22852 0.1105,-0.0227 0.22,-0.0432 0.33061,-0.0704 0.0119,0.003 0.0237,0.003 0.0355,0.006 2.56512,-1.79593 4.3637,-4.47227 5.12295,-7.48635 -0.0171,-0.009 -0.0338,-0.0188 -0.051,-0.0278 0.0435,-0.3283 0.0841,-0.66554 0.12681,-1.03996 0.062,0.0308 0.11808,0.0716 0.17984,0.10294 0.0451,-0.26431 0.0363,-0.53795 0.0652,-0.80586 -0.053,-0.0169 -0.1031,-0.0346 -0.15317,-0.0511 0.0885,-0.84028 0.14364,-1.5005 0.20456,-2.1906 -0.0499,-0.70386 -0.11991,-1.40941 -0.29189,-2.116 l -11.97529,-49.2023 c -0.14483,-0.59506 -0.37852,-1.14332 -0.60004,-1.69726 -0.37626,-0.35442 -0.47538,-0.45542 -0.8458,-0.79922 -0.005,-0.0224 -0.008,-0.045 -0.0124,-0.0673 0.22763,0.10666 0.44375,0.24341 0.67566,0.35618 -0.18245,-0.40584 -0.41185,-0.77478 -0.63279,-1.15459 -0.0868,-0.0298 -0.12566,-0.0496 -0.21882,-0.0814 -0.0269,-0.14014 -0.0555,-0.27995 -0.0841,-0.41976 -1.83538,-2.84588 -4.70869,-4.84348 -7.97651,-5.60066 -0.68397,0.10297 -1.36885,0.19976 -2.05166,0.30838 -0.16924,-0.047 -0.34145,-0.0883 -0.50981,-0.13722 -0.44794,-0.10331 -1.15508,-0.25364 -1.82177,-0.39885 -0.50308,0.0601 -1.00556,0.0859 -1.50913,0.2085 l -5.31364,1.29327 c 0.12147,0.0338 0.39753,0.11207 0.47857,0.13279 -0.31328,-0.002 -0.62648,-0.0138 -0.93971,-0.0205 l -68.24029,16.60893 c 0.25631,0.0888 0.52159,0.17484 0.77428,0.26584 -0.15334,0.003 -0.30668,0.006 -0.45341,0.0119 -0.18583,-0.0961 -0.39152,-0.14599 -0.59034,-0.21211 l -56.50287,13.75217 c 0.80186,-0.007 1.60373,-0.011 2.40552,-0.003 0.2723,0.044 0.54531,0.0854 0.81638,0.12489 -1.06493,0.15049 -2.5626,0.36115 -3.82053,0.5399 -0.45902,-0.0714 -0.91002,-0.12913 -1.36172,-0.18517 l -3.12365,0.76026 c 0.0884,0.008 0.17677,0.016 0.26513,0.024 -0.37233,0.0528 -0.55049,0.078 -0.87051,0.12342 l -20.24112,4.92646 c 0.34346,0.0234 0.68687,0.0476 1.03035,0.0709 0.12589,0.0934 0.27673,0.17862 0.43416,0.26419 -0.97397,-0.006 -1.94801,0.0143 -2.92197,0.0197 l -8.28547,2.01659 c 0.22251,0.0437 0.44255,0.10083 0.67347,0.0994 -0.44516,0.0373 -0.88821,0.0807 -1.32463,0.17365 -0.34185,0.0728 -0.89596,0.20005 -0.9322,0.52238 -0.28533,-0.0628 -0.57125,-0.12368 -0.83578,-0.20464 -9.7e-4,-4.9e-4 -0.003,-2.5e-4 -0.004,-9.7e-4 l -10.22685,2.4891 c 0.0596,0.003 0.11934,0.006 0.17901,0.009 -0.22623,0.0362 -0.45191,0.0762 -0.67812,0.11279 l -23.71396,5.77171 c 0.19259,0.0404 0.34546,0.0641 0.52472,0.0994 l 0.002,-4.6e-4 c -0.0126,-0.0223 -0.01,-0.0491 -0.005,-0.0773 0.11981,0.0471 0.22658,0.0983 0.34445,0.1433 -0.11085,-0.0207 -0.22347,-0.0431 -0.33971,-0.0661 0.0557,0.0974 0.26223,0.13274 0.49329,0.12719 -0.0517,-0.02 -0.0989,-0.0415 -0.15169,-0.0616 0.0893,0.0167 0.1879,0.0366 0.27395,0.0519 -0.0408,0.004 -0.0801,0.008 -0.12038,0.009 0.1617,0.0625 0.3322,0.12544 0.47442,0.19007 0.0466,0.0212 0.0973,0.0234 0.14569,0.0369 -9.8e-4,0.004 -0.005,0.01 -0.007,0.0137 -0.43134,0.0642 -0.87475,0.13809 -1.30587,0.20125 -0.25866,-0.0377 -0.51705,-0.0768 -0.77569,-0.11471 0.1052,-0.13182 0.20487,-0.2682 0.31088,-0.3993 0.0402,-0.0497 0.0803,-0.0999 0.1203,-0.14989 l -31.762214,7.73056 c -0.154576,0.3161 -0.322259,0.65557 -0.473595,0.96959 -0.460507,-0.18388 -0.913378,-0.34364 -1.420335,-0.50863 z M 223.13099,311.70385 c 0.26835,-0.0157 0.53679,-0.0296 0.80512,-0.0452 0.0123,0.0339 0.0273,0.0672 0.0406,0.10068 l -0.23205,0.0625 c -0.0714,0.0205 -0.14307,0.0398 -0.21448,0.0602 -0.1367,-0.0602 -0.23662,-0.10621 -0.39918,-0.17822 z m -92.64526,22.73777 c 0.41329,-0.0547 0.82786,-0.11565 1.23201,-0.13301 0.58318,-0.025 1.16547,-0.0649 1.74857,-0.0919 -0.16173,0.0456 -0.32434,0.0882 -0.48593,0.13435 -0.54114,0.0139 -1.08277,0.0159 -1.62321,0.0453 -0.28953,0.0157 -0.581,0.0309 -0.87144,0.0452 z m 161.78546,-39.32451 c 0.0172,-9e-5 0.0575,-0.002 0.0739,-0.002 0.24146,-0.002 0.99483,-0.002 1.68452,8e-5 -0.30373,0.0567 -0.60768,0.1131 -0.91107,0.1715 -0.0368,-0.002 -0.0426,-0.002 -0.0815,-0.004 -0.24578,-0.0486 -0.49259,-0.0958 -0.73661,-0.1524 -0.0156,-0.007 -0.0117,-0.006 -0.0293,-0.013 z M 76.60254,347.80746 c 0.378472,0.0411 0.784361,0.0856 1.152231,0.1256 -0.0048,0.18143 -0.02231,0.36115 -0.03697,0.5417 -0.125273,0.0304 -0.250033,0.0628 -0.375289,0.0933 -0.241048,-0.25777 -0.488773,-0.51342 -0.739933,-0.76065 z m 103.78077,-25.24299 c 0.63966,-0.15364 1.2796,-0.31094 1.91999,-0.46129 0.0418,-0.0101 0.0834,-0.0204 0.12524,-0.0305 2.4183,-0.29656 3.72647,-0.46767 5.39886,-0.67881 1.2e-4,0.001 8.1e-4,0.003 8e-4,0.004 -0.17439,0.0434 -0.2438,0.0756 -0.45412,0.12459 -1.81023,0.42093 -2.7564,0.0668 0.40226,0.52122 -1.91643,0.13522 -5.16151,0.3591 -5.6434,0.3926 -0.58305,0.0449 -1.16668,0.0839 -1.74976,0.12837 z m 76.73089,-18.09652 c 0.40504,-0.0893 0.81088,-0.17591 1.21624,-0.26387 l 0.0179,0.008 c -0.19178,0.1003 -0.3841,0.19878 -0.57554,0.30291 -0.0184,-0.003 -0.0366,-0.008 -0.0549,-0.0108 -0.0965,-0.0151 -0.4618,-0.0214 -0.60378,-0.0356 z M 54.957843,353.71476 c 0.01839,0.006 0.03644,0.013 0.05484,0.0188 0.0053,0.0229 0.01,0.0452 0.01663,0.0683 -0.157021,-9.5e-4 -0.308221,0.001 -0.434491,0.0153 0.0066,-0.003 0.01237,-0.008 0.01949,-0.0107 0.109,-0.0358 0.22933,-0.0608 0.343536,-0.0917 z m -0.741316,0.3734 c 0.0059,0.0244 0.01374,0.049 0.02889,0.0774 0.01525,0.0288 0.0338,0.0548 0.05017,0.0822 -0.105741,0.0366 -0.199016,0.0622 -0.307119,0.10088 -0.0032,-2.6e-4 -0.0053,-10e-4 -0.0085,-0.002 0.07886,-0.0862 0.156565,-0.17439 0.236571,-0.2586 z m -0.241803,0.26188 c 0.0012,4.9e-4 0.003,1.9e-4 0.0043,9.7e-4 -0.0037,8.1e-4 -0.0052,0.004 -0.009,0.005 0.0017,-0.002 0.0031,-0.004 0.0047,-0.005 z M 248.36027,307.84685 c 0.0173,-0.003 0.0344,-0.007 0.0517,-0.0106 -0.009,0.0484 -0.0163,0.086 -0.0255,0.13485 -0.0101,-0.041 -0.0162,-0.0832 -0.0263,-0.12427 z m -23.90954,6.14094 c 0.0541,0.019 0.10848,0.038 0.16261,0.0569 -0.024,0.006 -0.0481,0.0119 -0.0721,0.0176 -0.33403,0.0782 -0.67421,0.14954 -1.0104,0.22581 0.30598,-0.10164 0.61337,-0.19778 0.91992,-0.30028 z m 76.67339,-18.52276 c 0.0412,-0.007 0.0821,-0.0151 0.1233,-0.022 0.002,4.8e-4 0.0111,0.004 0.0133,0.005 -0.0457,0.005 -0.0909,0.0117 -0.13653,0.0171 z m 1.61324,-0.268 c 0.2371,-0.0385 0.47402,-0.0795 0.7113,-0.11685 0.004,0.0345 0.008,0.0692 0.0111,0.10382 -0.18075,0.0227 -0.36385,0.0438 -0.54471,0.0662 -0.0593,-0.0178 -0.11835,-0.0358 -0.17777,-0.0533 z m -20.10803,5.38252 c 0.0947,0.0479 0.19032,0.0943 0.28428,0.14389 -0.0141,0.006 -0.0702,0.0342 -0.0846,0.0407 -0.16162,-0.0209 -0.32231,-0.0484 -0.48369,-0.0713 -0.009,-0.002 -0.0174,-0.005 -0.0261,-0.007 0.0936,-0.0331 0.22137,-0.0739 0.31,-0.1056 z m -182.06942,46.48663 c 0.0118,-4e-4 0.0236,-0.002 0.0356,-0.002 0.003,10e-4 0.006,0.002 0.009,0.003 -0.0149,-4.8e-4 -0.0297,-0.001 -0.0445,-0.001 z m -4.86017,1.27336 c 0.0426,-0.006 0.0858,-0.0106 0.1285,-0.0172 0.25945,0.009 0.88721,0.0166 1.61655,0.0347 -0.0568,0.0117 -0.11304,0.0255 -0.16983,0.0374 -0.57445,0.12501 -1.15448,0.19352 -1.73268,0.28102 0.0533,-0.10724 0.10481,-0.22287 0.15746,-0.33584 z m 124.20001,-30.09018 c 0.0604,-0.0178 0.14991,-0.009 0.21569,-0.0223 -0.0199,0.0676 -0.0444,0.13374 -0.0657,0.2009 -0.21471,0.0814 -0.42878,0.16395 -0.64434,0.24328 0.11476,-0.15224 0.14039,-0.18037 0.26893,-0.35693 0.062,-0.0182 0.16586,-0.0474 0.22541,-0.0649 z m -116.57878,28.62323 c 0.0128,-0.003 0.0257,-0.005 0.0384,-0.007 0.43697,-0.0302 0.8743,-0.0584 1.31131,-0.088 -0.25674,0.0574 -0.51326,0.11569 -0.76991,0.17331 -0.19264,-0.0251 -0.37714,-0.0522 -0.57981,-0.0779 z m 75.60533,-18.09596 c 0.51636,-0.11744 1.03348,-0.23044 1.55071,-0.34325 0.0184,0.004 0.0368,0.009 0.0553,0.0128 -0.44548,0.11872 -0.89119,0.2366 -1.33711,0.35357 -0.0574,0.016 -0.13032,0.0357 -0.18839,0.0519 -0.0267,-0.0251 -0.0509,-0.0574 -0.0805,-0.0749 z M 47.255504,360.90222 c 0.287236,0.25071 0.702195,0.3501 1.16637,0.3654 -0.04684,0.11371 -0.09553,0.22653 -0.142337,0.34019 -0.272303,0.47255 -0.525234,0.91308 -0.875393,1.51563 -0.04066,0.065 -0.214737,0.32332 -0.436141,0.66096 -0.0637,0.0161 -0.128,0.0303 -0.19167,0.0466 -0.329661,-0.37406 -0.661104,-0.74637 -0.985417,-1.12506 -0.06988,-0.0815 -0.130348,-0.17405 -0.194482,-0.26222 0.066,-0.0912 0.137539,-0.17742 0.20913,-0.26397 0.230092,0.067 0.460903,0.13169 0.688926,0.2042 0.213867,-0.21161 0.549986,-0.34798 0.641572,-0.63457 0.08708,-0.27249 0.114526,-0.5584 0.119443,-0.84721 z m 91.765856,-22.09758 c 0.17399,-0.031 0.34767,-0.0638 0.52167,-0.0948 0.0494,-0.002 0.10462,-0.003 0.15398,-0.003 0.003,0.0261 -0.008,0.0484 -0.004,0.0753 -0.22948,0.007 -0.44431,0.0158 -0.67185,0.0228 z m -88.09017,22.68042 246.29432,-59.94529 c 2.77451,-0.67528 5.40307,0.92422 6.07835,3.69873 l 11.9753,49.20231 c 0.67529,2.77451 -0.92421,5.40307 -3.69873,6.07835 L 65.286114,420.46445 c -2.774511,0.67529 -5.403068,-0.9242 -6.078354,-3.69872 L 47.232467,367.56342 c -0.675285,-2.77451 0.924213,-5.40307 3.698723,-6.07836 z m 251.14108,-60.2083 c 0.003,0.0229 0.006,0.0454 0.009,0.0682 -0.0166,-0.005 -0.0345,-0.0144 -0.0511,-0.0197 0.014,-0.0162 0.0287,-0.0321 0.0425,-0.0485 z M 44.528578,367.17423 c 0.100372,0.62636 0.207604,1.25135 0.323703,1.87508 -0.03488,-0.009 -0.06949,-0.0161 -0.104535,-0.0248 -0.08729,-0.0283 -0.172964,-0.059 -0.261909,-0.085 -0.0337,-0.10044 0.0075,0.0217 -0.02838,-0.0836 -0.164505,-0.48264 -0.214733,-1.04039 -0.319966,-1.5624 0.13165,-0.0372 0.258059,-0.0856 0.391082,-0.11931 z M 309.99238,303.30907 c 0.22747,0.0505 0.32874,0.13851 0.35467,0.25138 -0.10683,-0.0337 -0.22209,-0.0724 -0.32716,-0.10529 -0.01,-0.0486 -0.0178,-0.0976 -0.0275,-0.14608 z M 77.891819,362.80894 c -0.818432,1.34498 -0.818434,1.34498 -2.040586,6.73814 l -0.485842,2.17463 c -0.320653,1.41942 -0.641209,2.8389 -0.961643,4.25836 l -0.345494,1.54546 c 0.116083,0.0211 0.236781,0.0448 0.358231,0.0595 0.350561,0.35754 0.533229,0.55357 0.767688,0.79209 0.05029,0.70531 0.07811,1.41077 0.01573,2.11285 -0.0027,0.0303 -0.01228,0.0783 -0.0154,0.11027 -0.08257,-0.43703 -0.15486,-0.876 -0.239096,-1.31272 -0.399802,-0.11119 -0.795133,-0.26341 -1.190225,-0.41386 l -0.0892,0.40163 -0.115009,-0.47254 c -0.0031,-10e-4 -0.0059,-0.002 -0.009,-0.003 0.0014,-0.006 0.0027,-0.0113 0.0039,-0.017 l -1.678833,-6.89857 c -0.01015,0.0107 -0.01994,0.0223 -0.03005,0.0334 0.0056,-0.0415 0.0076,-0.0732 0.01155,-0.10937 l -1.256788,-5.1637 -4.123026,-0.0257 c -0.555989,2.43035 -0.555726,2.4303 0.772113,7.98733 l 0.587205,2.38784 c 0.402824,1.66352 0.80632,3.32687 1.210502,4.99005 0.645613,2.62553 1.289634,5.25156 1.923903,7.87987 0.412759,1.71365 0.829003,3.42557 1.246526,5.13807 l 0.600037,2.45708 c 0.928107,3.85513 1.65769,7.38884 3.749928,10.79036 0.08543,0.0134 0.19104,0.0301 0.282057,0.0439 l 3.446643,-1.81179 -4.729701,-19.4327 1.706781,-1.4446 c 1.51305,3.59398 3.43967,6.75784 5.59529,9.98945 l 1.28845,1.90761 c 2.4488,3.74301 3.88874,6.48946 8.27177,8.0857 l 1.70678,-1.4446 c -1.58437,-4.58865 -3.52049,-8.04208 -6.51545,-11.85403 -2.28258,-2.83029 -4.55945,-5.6593 -6.69678,-8.60171 -1.65976,-2.73031 -2.27972,-3.83196 -1.7774,-6.98885 0.26073,-0.75838 0.46585,-1.47433 0.68973,-2.20414 -0.0343,-0.007 -0.0603,-0.0234 -0.0956,-0.029 0.24235,-0.56513 0.42314,-1.16842 0.63931,-1.79187 0.93162,-3.46178 1.42172,-6.78856 1.40177,-10.6512 -0.0829,-0.0284 -0.16374,-0.0711 -0.24668,-0.0967 l -2.17289,0.52886 c 0.0252,0.10348 0.0351,0.1965 0.0626,0.29836 -0.1345,-0.008 -0.26298,-0.0269 -0.39819,-0.0338 -0.23045,-0.0117 -0.46217,-0.005 -0.69294,-0.0143 z m 17.977941,-4.12436 c -0.36759,0.0967 -0.72125,0.22679 -1.07194,0.36944 0.17521,0.20337 0.3509,0.40631 0.52629,0.60964 -0.39073,0.0674 -0.78061,0.13803 -1.17558,0.19968 0.0136,-0.1698 0.0132,-0.33949 0.0188,-0.50912 -1.03775,0.52061 -2.05108,1.2514 -3.17129,2.32368 -1.65214,3.57975 -2.19354,7.24443 -2.12942,11.18812 1.13258,8.60557 3.90401,18.85905 9.95674,25.49751 0.0719,-0.0533 0.14775,-0.10326 0.21653,-0.15923 0.18554,0.0319 0.37494,0.0372 0.55749,0.011 0.0533,0.0223 0.11483,0.0612 0.16624,0.0801 0.7611,0.28139 1.47046,0.50239 2.18497,0.72655 -0.27062,0.31334 -0.53927,0.62802 -0.80458,0.94762 -0.0194,0.034 -0.0451,0.0654 -0.0665,0.0986 -0.51415,-0.29797 -1.01498,-0.61701 -1.52051,-0.92848 0.50849,0.51058 1.03111,1.00369 1.58398,1.46179 2.70231,1.17554 2.70232,1.17554 6.14985,0.73847 l 3.65593,-1.03454 c 2.17157,-0.59471 4.33986,-1.20217 6.49941,-1.83918 l -0.73178,-2.6763 -1.01872,-3.45875 -0.11079,-0.38915 c -0.19107,0.0179 -0.38215,0.0345 -0.57302,0.0491 -0.004,-0.0345 -0.003,-0.0726 -0.008,-0.10663 0.11334,-0.0285 0.2298,-0.0408 0.34384,-0.0656 0.0671,0.007 0.13198,-0.008 0.19855,-0.0102 l -0.45198,-1.58454 c -0.17656,-0.009 -0.33965,-0.0493 -0.51842,-0.0487 -0.058,-0.0266 -0.0939,-0.0386 -0.14789,-0.0625 -0.0316,-0.055 -0.0697,-0.11432 -0.10408,-0.17165 0.20648,-0.0824 0.41989,-0.14151 0.62946,-0.21352 l -0.24247,-0.84756 c -0.22195,-0.47562 -0.37373,-0.77666 -0.53738,-1.10947 -0.71962,-0.12208 -1.4454,-0.22858 -2.14365,-0.20994 0.13076,-0.6281 0.27138,-1.25357 0.41104,-1.87903 -0.31545,-0.16867 -0.69101,-0.33803 -1.20256,-0.56362 -2.76018,-0.0553 -4.43371,0.77653 -6.81943,2.11004 l 0.70945,2.9149 4.12303,0.0257 2.15405,4.62169 c -2.43621,1.74478 -2.43621,1.74478 -4.57574,2.07856 -2.45045,-0.31171 -2.45045,-0.31171 -4.92758,-2.27421 -1.2877,-1.50001 -2.34035,-3.11317 -3.21592,-4.80548 -0.004,0.18747 0.0147,0.49504 0.006,0.65376 -0.003,0.0541 -0.008,0.10902 -0.0103,0.16338 -0.12889,0.002 -0.25715,-6.2e-4 -0.38608,-5.5e-4 -0.23895,-0.5337 -0.44123,-1.07875 -0.60516,-1.63571 0.0958,-0.38174 0.11425,-0.60855 0.17319,-0.95676 -1.27784,-2.96014 -2.06991,-6.12648 -2.57115,-9.37467 -0.15816,0.14296 -0.33572,0.27045 -0.44951,0.44913 0.10259,-0.3547 0.22693,-0.71346 0.33874,-1.06943 -0.41132,-2.8787 -0.57796,-5.79907 -0.70046,-8.69223 -0.08,0.045 -0.15003,0.10488 -0.19832,0.20103 -7.2e-4,9.7e-4 -1.1e-4,0.003 -9.6e-4,0.004 -0.10368,-0.0325 -0.2074,-0.0647 -0.31109,-0.0972 0.15637,-0.0442 0.32776,-0.0803 0.50993,-0.11003 -0.0137,-0.32419 -0.0378,-0.65144 -0.0503,-0.97475 -0.10358,-0.0379 -0.20648,-0.0767 -0.311,-0.11329 0.0768,-0.32859 0.15522,-0.65686 0.23684,-0.98431 0.006,0.0295 0.014,0.0796 0.0202,0.11571 -0.004,-0.11008 -0.015,-0.22327 -0.0188,-0.33314 0.87658,-3.62472 0.8766,-3.62473 4.10759,-4.79489 l 2.35539,-0.85268 c -0.0409,0.003 -0.0788,1e-5 -0.11986,0.003 0.15165,-0.039 0.26193,-0.0677 0.39714,-0.10269 l 0.0869,-0.0312 -0.62631,-2.57333 c -0.92647,0.18351 -1.85713,0.34587 -2.78214,0.53644 -0.20288,-0.24382 -0.3996,-0.49252 -0.59985,-0.73846 -0.44181,0.0581 -0.89929,0.0963 -1.3073,0.2036 z m 17.47388,-2.44583 9.93238,40.80867 c 0.90946,-0.22136 1.70739,-0.45887 2.51361,-0.69822 0.74463,-0.39793 1.50041,-0.77438 2.2245,-1.20878 0.28304,-0.16986 0.56339,-0.37548 0.84762,-0.55607 1.05716,-0.30651 2.0869,-0.63913 2.36649,-0.73277 0.0857,-0.0291 0.30415,-0.11338 0.40975,-0.14999 0.0465,0.0114 0.11752,0.008 0.16711,0.0175 1.12809,-0.72318 2.23843,-1.57612 3.39272,-2.661 1.45874,-2.99235 1.45874,-2.99235 1.496,-6.53927 -0.29405,-0.9684 -0.6238,-1.85091 -0.96265,-2.72463 -0.15121,0.0601 -0.28499,0.14128 -0.4441,0.19051 -0.028,-0.002 -0.0559,-0.004 -0.0838,-0.005 -0.0903,-0.48264 -0.27284,-0.95442 -0.48762,-1.41706 0.15744,-0.0273 0.26691,-0.0767 0.247,-0.18274 0.0797,-0.0132 0.11182,-0.0293 0.17648,-0.0429 -0.0609,-0.13506 -0.1203,-0.27256 -0.18317,-0.4057 -0.13303,-0.0604 -0.26332,-0.12606 -0.3982,-0.18248 -0.0517,-0.0703 -0.10921,-0.16159 -0.15918,-0.22458 0.11747,-0.006 0.23677,-0.0135 0.35826,-0.0229 -0.20866,-0.42037 -0.43194,-0.82859 -0.66357,-1.23153 -0.2378,-0.0161 -0.43469,-0.0633 -0.68409,-0.0687 -0.004,-0.005 -0.009,-0.009 -0.0117,-0.0152 -0.005,-0.2977 -0.0143,-0.66596 -0.0227,-1.06789 -1.01586,-1.53463 -2.23758,-2.97018 -3.79276,-4.37563 l -2.26522,-1.37841 c 1.18608,-2.65553 1.78095,-4.87192 1.57768,-7.78934 -0.55265,-2.93721 -0.99122,-4.78635 -2.47911,-6.58489 -0.046,0.0217 -0.12763,0.0567 -0.17196,0.078 -0.24095,-0.20729 -0.53735,-0.48172 -0.83943,-0.75652 -0.0613,-0.21784 -0.17386,-0.41537 -0.26757,-0.62035 -0.2438,-0.21691 -0.48147,-0.43201 -0.76476,-0.65611 -2.83505,-0.59865 -3.49944,-0.59424 -8.68337,0.64603 l 0.0519,0.18839 c -0.25179,0.0448 -0.50362,0.0889 -0.75544,0.13361 -0.0177,-0.0473 -0.0354,-0.0945 -0.0527,-0.14197 -0.56784,0.13722 -0.90918,0.21324 -1.58835,0.37855 z m 1.90119,0.42776 c 0.22622,-0.0478 0.45218,-0.0969 0.67832,-0.14499 0.25431,0.89394 0.50234,1.79019 0.7502,2.68588 -0.18928,0.0333 -0.21198,0.0362 -0.4012,0.0695 -0.35073,-0.86749 -0.69063,-1.73788 -1.02732,-2.61039 z m -36.86041,9.87597 c 0.76438,-0.001 1.52891,-0.006 2.29329,-0.009 0.19227,0.51462 0.27151,0.72559 0.48695,1.29865 -0.0118,-0.006 0.0192,-0.013 -0.0122,-0.0171 -0.0744,-0.0108 -0.0932,-0.0117 -0.16424,-0.0223 -0.43843,-0.2935 -1.35697,-0.63076 -2.65727,-1.1061 0.0164,-0.0412 0.0378,-0.10431 0.0534,-0.14368 z m 46.07944,-11.1127 c 0.0163,-0.0358 0.4876,0.21991 0.53472,0.39651 0.0122,0.0459 0.0196,0.0931 0.0318,0.139 -0.19011,-0.17707 -0.33053,-0.29502 -0.54402,-0.50079 -0.0188,-0.0182 -0.0247,-0.0295 -0.0225,-0.0347 z m -27.73363,6.94705 c 0.2838,-0.0691 0.53858,-0.13197 0.77996,-0.18982 0.0429,0.0491 0.0856,0.0984 0.1284,0.14763 -0.30015,0.0413 -0.59999,0.0849 -0.90035,0.12467 -0.003,-0.0285 -0.005,-0.0545 -0.008,-0.0825 z m 21.20941,-4.16912 5.33115,0.76084 c 0.83091,2.72636 1.18233,4.86035 1.0433,7.72232 -0.39135,2.75265 -0.39136,2.75265 -3.30014,4.1481 z m 87.13625,-20.80194 c -1.88751,0.52753 -3.0903,1.8824 -4.19509,4.08852 0.0478,-0.008 0.0956,-0.015 0.1432,-0.0228 -0.0163,-0.008 -0.0333,-0.0142 -0.0496,-0.0221 0.25718,-0.034 0.51466,-0.0578 0.77182,-0.0994 l 8e-4,0.004 c -0.24124,0.0381 -0.48193,0.0795 -0.72315,0.11771 0.01,0.005 0.0196,0.008 0.0293,0.013 0.23289,-0.0369 0.46559,-0.0749 0.69847,-0.11171 0.0375,0.15571 0.071,0.31236 0.10793,0.46823 -0.26805,-0.12047 -0.54112,-0.2301 -0.8064,-0.35652 -0.0607,0.01 -0.12142,0.0186 -0.18208,0.0282 -0.10275,0.20576 -0.20785,0.38248 -0.30931,0.60395 0.42649,0.16444 0.84876,0.33809 1.27974,0.49258 -0.25388,0.004 -1.0151,0.0132 -1.31039,0.0174 0.006,0.24933 0.0413,0.48776 0.0542,0.7346 0.53917,-0.012 1.07834,-0.0238 1.61748,-0.0359 0.0864,0.3676 0.16881,0.73618 0.25461,1.10391 -0.44023,-0.0436 -1.13712,-0.17736 -1.81526,-0.30596 0.30658,3.64053 1.39924,6.98973 4.06337,9.67483 6.26971,5.01515 7.77888,9.20304 8.95817,17.13313 l -5.59332,2.39055 1.68109,2.67842 c 1.21277,-0.15313 1.8191,-0.24626 2.46286,-0.38636 0.18434,-0.27631 0.36584,-0.55404 0.53814,-0.83654 0.19427,-0.0777 0.38991,-0.15706 0.61726,-0.30501 0.29721,0.11409 0.59912,0.21359 0.8982,0.29598 0.36549,0.10063 0.15124,-0.2393 -0.30026,-0.77118 0.1278,-0.10511 0.2383,-0.17226 0.37561,-0.29846 0.20766,-0.19084 0.23498,-0.44727 0.20774,-0.72396 0.48209,0.33144 1.01461,0.58926 1.54758,0.84148 2.02662,-3.06679 2.36499,-5.71847 2.06307,-9.51159 -0.76982,-4.45877 -2.5841,-7.67149 -5.7204,-10.58615 -0.044,-0.004 -0.088,-0.009 -0.1321,-0.0137 0.006,-0.0333 0.0104,-0.0669 0.0158,-0.10032 -0.46866,-0.42968 -0.9639,-0.85299 -1.49184,-1.27317 -1.16108,-0.90117 -2.31272,-1.81465 -3.45333,-2.74157 -2.06768,-3.71829 -2.15879,-4.01539 -2.02927,-7.99895 -0.002,-4.9e-4 -0.005,-0.002 -0.007,-0.002 -0.0437,-0.15424 -0.0895,-0.30782 -0.13259,-0.46221 0.0495,-0.005 0.0992,-0.0101 0.14885,-0.0162 8.4e-4,-0.0262 -1.8e-4,-0.036 0.001,-0.0625 l 1.79525,-0.43695 c -0.10951,-0.007 -0.21882,-0.0141 -0.32817,-0.0186 0.2257,-0.0229 0.45155,-0.0443 0.67735,-0.0664 l 1.74211,-0.42401 -0.70946,-2.91491 c -1.37801,-0.1146 -2.50708,-0.0475 -3.4623,0.21955 z m 84.53272,-20.57231 c -0.0661,0.0182 -0.11568,0.0576 -0.18002,0.078 0.69432,0.18853 1.3804,0.40873 2.08318,0.56438 -0.12452,0.15454 -0.26094,0.34476 -0.35129,0.42321 -1.12186,-0.0301 -2.24294,-0.0731 -3.36403,-0.11996 -0.97122,0.74049 -1.75459,1.84487 -2.48652,3.34501 0.78212,0.0261 1.56427,0.0515 2.34629,0.0762 0.36164,0.11355 0.71985,0.24042 1.08312,0.34545 0.0129,0.004 0.20383,0.0238 0.32048,0.0366 -0.0399,-0.30484 -0.10154,-0.55448 -0.13809,-0.87296 l 4.85817,-1.18243 -0.69467,-2.85417 c -0.0674,-0.0211 -0.1445,-0.0442 -0.20851,-0.0638 -1.28458,-0.0909 -2.36264,-0.0291 -3.26811,0.22454 z M 81.09373,367.88719 c 0.0245,-0.006 0.0689,-0.0137 0.0859,-0.0189 0.024,0.0639 0.03,0.0831 0.0536,0.14577 -0.0393,-0.0428 -0.0881,-0.0856 -0.13943,-0.12688 z m 87.74578,-21.23775 c -0.0153,0.003 -0.052,0.0167 -0.0674,0.0204 0.007,0.003 0.007,0.003 0.0137,0.007 -0.0337,0.006 -0.0598,0.0106 -0.0905,0.016 -0.89908,0.19803 -2.03355,0.55021 -3.88063,1.13547 -0.36049,1.57584 -0.43848,2.23551 -0.0974,3.83693 0.081,0.14238 0.10983,0.25207 0.20168,0.39916 -0.0478,-0.0293 -0.0933,-0.0628 -0.14106,-0.0923 0.0973,0.42082 0.24306,1.01233 0.39932,1.59938 0.0125,0.002 0.0235,0.005 0.036,0.007 0.008,0.037 0.0188,0.0731 0.0268,0.11007 -0.0134,-8.6e-4 -0.0166,0.002 -0.0299,10e-4 0.14593,0.54541 0.25882,0.98173 0.45925,1.71343 l 0.32673,1.16074 0.2943,1.04399 c 0.64347,2.33175 1.28813,4.66406 1.93937,6.99366 0.45388,1.62253 0.90558,3.24467 1.35574,4.86826 1.31994,4.77134 2.64631,9.54083 3.97906,14.30861 l 0.68508,-0.16674 c 0.027,-0.37547 0.0748,-0.71723 0.0969,-1.09698 0.21516,0.30248 0.41297,0.61641 0.62429,0.92147 l 2.46325,-0.59953 c -0.18807,-0.25698 -0.36539,-0.52166 -0.55508,-0.77751 0.11024,0.018 0.22061,0.0354 0.33078,0.0542 0.086,0.0554 0.18184,0.0719 0.27463,0.096 0.18541,-2.30657 0.17885,-2.77578 -0.26279,-4.96139 l -0.67434,-2.62193 -0.67228,-2.64656 -0.52653,-2.01466 c 0.29708,0.4733 0.60797,0.93775 0.90786,1.40927 -0.13506,-0.21832 -0.26699,-0.43838 -0.40473,-0.6553 0.13963,-0.0402 0.27975,-0.0785 0.4195,-0.11818 0.0386,0.32315 0.0736,0.64666 0.11143,0.96991 0.73827,1.1585 1.47232,2.31979 2.23043,3.46536 l 1.76561,2.64578 c 1.04597,1.5681 2.09214,3.13605 3.13888,4.70363 l 3.88653,-0.94594 c -1.03914,-2.0075 -2.1088,-3.98923 -3.21915,-5.95851 -2.61904,-4.63392 -5.25839,-9.13773 -6.8417,-14.23504 1.23382,-3.38787 1.23382,-3.38787 0.78604,-5.72323 l -0.8561,-2.49326 c -0.99495,-3.07411 -1.4415,-4.30274 -4.25751,-5.96309 -1.74506,-0.48363 -2.53001,-0.67229 -3.77963,-0.47311 -0.0813,0.0229 -0.1543,0.0197 -0.23763,0.0478 -0.0281,0.005 -0.0468,0.009 -0.0749,0.0142 -0.0124,-0.005 -0.0248,-0.009 -0.0374,-0.013 -0.0171,0.003 -0.0291,0.005 -0.0464,0.008 z m -0.49469,0.17266 c 0.109,-0.0183 0.20741,-0.0344 0.31678,-0.0529 -0.0868,0.0373 -0.16687,0.0522 -0.25594,0.0965 -0.0203,-0.0141 -0.0408,-0.0295 -0.0609,-0.0434 z m 122.03976,-29.69105 c 0.0314,-0.0159 0.20232,-0.023 0.60591,-0.005 0.053,0.002 0.10559,0.0124 0.15858,0.0161 -0.30613,0.0827 -0.8295,0.0214 -0.76451,-0.0109 z m -85.98748,21.02891 c 0.47001,0.18316 0.97006,0.27127 1.4778,0.33179 -0.0319,0.006 -0.0642,0.0107 -0.0963,0.0174 -0.1597,0.0761 -0.38778,0.0775 -0.47892,0.22915 -0.10924,0.18169 -0.0709,0.31644 0.009,0.43207 -0.21344,0.0187 -0.42764,0.0318 -0.64124,0.0495 -0.008,-0.0302 -0.0177,-0.0602 -0.026,-0.0901 -0.0718,-0.27411 -0.15024,-0.62655 -0.24407,-0.96979 z m -19.17815,4.70191 c -0.1412,0.38774 -0.21352,0.60866 -0.32357,0.91698 0.0159,0.04 0.0364,0.087 0.0495,0.12063 -0.0345,-0.008 -0.0548,-0.0151 -0.0837,-0.0219 -0.56288,1.58525 -0.75683,2.35793 -0.66507,3.42031 0.0847,0.009 0.15661,0.017 0.24142,0.0257 0.18563,0.0534 0.37165,0.10354 0.55706,0.1579 -0.27169,-0.0501 -0.53699,-0.0751 -0.79909,-0.087 0.0357,0.36117 0.11367,0.84087 0.19479,1.35367 0.53535,0.0493 1.07013,0.10401 1.6054,0.15397 -0.001,0.12478 -1.3e-4,0.24948 -0.001,0.37424 -0.51892,-0.0734 -1.03844,-0.14245 -1.55765,-0.21389 0.002,0.0129 0.001,0.0183 0.003,0.0313 l 0.0814,0.3179 c 0.28448,0.0512 0.29253,0.0893 0.0287,0.1096 l 0.0518,0.2045 c 0.46233,0.0601 0.92471,0.11957 1.38684,0.18107 -7.4e-4,0.11336 -0.001,0.22676 -0.002,0.34011 -0.38532,0.0326 -0.83924,0.008 -1.18415,0.13143 0.39469,-0.0195 0.78878,-0.0473 1.18503,-0.0452 -3.8e-4,0.12615 -0.003,0.25233 -0.002,0.37848 -0.47412,-0.008 -0.79772,-0.0184 -1.13909,-0.0303 l 0.47864,1.86751 c 2.13837,8.41572 2.65401,10.18232 7.18767,25.07998 0.0495,0.01 0.0983,0.0177 0.14525,0.027 0.18206,0.79065 0.40885,1.57013 0.59828,2.35902 l 5.37057,-1.30714 c -0.0976,-0.58736 -0.15713,-1.20359 -0.26352,-1.80127 0.49793,0.12812 0.99518,0.26326 1.49355,0.38828 0.87479,0.0383 1.76763,0.26153 2.63303,0.20546 0.15215,0.0536 0.30586,0.10242 0.45805,0.15587 l 0.78187,-0.19029 c 0.007,-0.006 -0.0252,-0.0265 -0.003,-0.0275 0.012,-3.9e-4 0.0558,0.01 0.071,0.0106 l 0.12335,-0.03 -0.12009,-0.4934 c -0.18126,-0.10971 -0.36308,-0.21699 -0.54219,-0.3364 -0.009,-0.0331 -0.002,-0.0762 -0.0136,-0.10525 0.14089,-0.0322 0.27805,-0.0825 0.41764,-0.12578 l -0.45126,-1.85407 -6.80145,1.6554 c -1.38227,-5.26953 -2.64093,-10.30687 -2.81213,-15.78266 l 3.88655,-0.94593 -0.94594,-3.88654 -4.85818,1.18243 -2.36485,-9.71635 5.82981,-1.41892 0.0122,-1.95683 c -0.13974,-0.009 -0.27934,-0.0192 -0.41908,-0.0282 -0.88241,-0.0571 -0.88848,-0.043 -1.48316,-0.0812 0.63437,-0.014 1.26877,-0.029 1.90316,-0.0431 l 0.005,-0.78727 c -0.79458,0.01 -0.8978,0.0122 -1.87177,0.0234 0.36948,-0.0594 0.73869,-0.12 1.10818,-0.17926 -0.3761,0.0599 -0.75252,0.11795 -1.12854,0.17819 -1.17687,0.0135 -0.74877,0.0102 -2.25647,0.0286 -0.0288,-0.0235 -0.0423,-0.0606 -0.0757,-0.08 -0.10732,-0.0625 -0.22733,-0.095 -0.3392,-0.1466 -0.003,-0.009 -0.004,-0.0177 -0.007,-0.0266 -0.0429,-0.006 -0.0874,-0.0246 -0.13054,-0.0326 -0.23633,-0.0991 -0.48895,-0.15844 -0.73709,-0.22867 l -2.39906,0.33465 c 0.0134,0.0214 0.0223,0.0412 0.0418,0.0642 0.009,0.034 0.0173,0.0682 0.0269,0.10202 -0.35607,0.003 -0.61327,-0.008 -0.96823,-0.006 -0.0404,-0.005 -0.0805,-0.0111 -0.12069,-0.0168 z m 9.18207,-0.32317 c 0.25478,-0.0406 0.50958,-0.0812 0.76439,-0.12172 l -4.6e-4,-0.002 c -0.25466,0.0411 -0.50922,0.0827 -0.76392,0.12361 z m -9.59794,7.8398 c -0.0111,4.4e-4 -0.0225,0.002 -0.0337,0.002 l 0.005,0.019 c 0.0115,-0.004 0.0172,-0.0168 0.029,-0.0212 z m 33.45146,-15.55712 -0.73515,1.20811 c 0.0695,0.33145 0.15136,0.66007 0.22121,0.99144 0.29576,0.024 0.48884,0.0338 0.78175,0.057 -0.23212,0.0375 -0.4888,0.0791 -0.74258,0.12044 0.31618,1.48602 0.63077,2.97244 0.99027,4.44864 l 0.59162,2.36466 c 0.22578,0.92342 0.45522,1.84578 0.68194,2.76883 1.04399,0.35479 2.08733,0.71035 3.12929,1.07161 -0.93897,-0.0516 -2.03467,-0.10113 -2.90476,-0.15735 0.23179,0.9439 0.46532,1.88746 0.69908,2.83099 0.10794,0.0527 0.18906,0.11677 0.30213,0.16768 0.55991,0.46066 1.12018,0.92126 1.68112,1.38187 -0.10763,0.0283 -0.20269,0.0883 -0.30214,0.13786 -0.21962,-0.0378 -0.43912,-0.0754 -0.65871,-0.1131 -0.095,-0.0385 -0.18928,-0.0786 -0.28396,-0.11783 -0.12731,-0.017 -0.25448,-0.007 -0.38176,-0.008 0.39036,1.57005 0.7797,3.14036 1.16676,4.71122 1.19139,4.84643 2.38965,9.69173 3.59204,14.5355 0.23275,0.0271 0.48122,0.0979 0.69959,0.091 0.0891,0.0463 0.17566,0.0987 0.26437,0.1447 -0.2717,0.11955 -0.55624,0.19177 -0.83504,0.28566 0.0196,0.079 0.0381,0.15825 0.0578,0.23722 l 9.00282,-2.19119 c 0.36413,-0.25452 0.73557,-0.49733 1.09614,-0.75726 0.17481,0.0516 0.40067,0.11373 0.54238,0.15544 l -0.66281,-2.72324 -2.35697,0.57366 c -0.0324,0.0208 -0.0631,0.0435 -0.0946,0.0653 -0.3295,0.11786 -0.66693,0.20906 -1.00563,0.29501 -0.0591,-0.0176 -0.11966,-0.0313 -0.17876,-0.049 l -2.19378,0.53395 c -0.10806,-0.41018 -0.20508,-0.81312 -0.31119,-1.2208 -0.037,-0.008 -0.0727,-0.0215 -0.10972,-0.0296 0.0298,-0.0165 0.0619,-0.028 0.0917,-0.0444 -0.21663,-0.83679 -0.43585,-1.67559 -0.6381,-2.50612 -0.20709,0.10424 -0.41659,0.20308 -0.62577,0.30307 0.001,-0.0655 0.007,-0.12325 0.009,-0.18895 0.11842,-0.038 0.36581,-0.16426 0.58049,-0.25786 -0.94222,-3.88812 -1.6797,-7.73982 -1.80782,-11.83795 l 2.9149,-0.70946 0.009,-1.48976 c -0.0101,-0.004 -0.0191,-0.008 -0.0288,-0.0115 0.006,5.1e-4 0.0218,6.7e-4 0.0284,10e-4 l 0.0168,-2.62331 -4.85817,1.18243 -2.36485,-9.71635 5.82981,-1.41892 -0.94594,-3.88654 -2.15133,0.2623 -2.77914,0.3588 c -1.68049,0.21169 -3.35771,0.45921 -5.02237,0.77212 z m 36.92213,-8.98644 c -0.26077,0.71607 -0.44078,1.21945 -0.60074,1.68599 0.0633,0.006 0.12639,0.0154 0.18983,0.0201 -0.0227,0.0212 -0.0437,0.0435 -0.0577,0.0684 -0.016,-2.2e-4 -0.0322,3.7e-4 -0.0483,-4.5e-4 -0.0362,-0.006 -0.0726,-0.0117 -0.10884,-0.0177 -0.54656,1.60439 -0.55024,2.12529 -0.39184,3.65935 0.0343,-0.12066 0.0691,-0.239 0.11336,-0.39341 0.0185,0.17287 0.0559,0.31881 0.0666,0.49638 -0.0655,6.9e-4 -0.1126,0.002 -0.17008,0.003 0.005,0.0441 0.004,0.0646 0.009,0.11043 l 0.53614,2.5249 0.565,2.7591 c 0.41116,1.91555 0.81861,3.83189 1.22235,5.74901 l 0.54579,2.64718 c 0.58746,0.18148 1.02913,0.26428 1.18245,0.14235 0.41223,0.22389 0.8153,0.44465 1.22709,0.65615 0.005,0.0177 0.0115,0.0347 0.0168,0.0522 0.12164,0.45327 0.0634,0.99818 0.15767,1.45718 -0.55681,-0.1725 -1.35566,-0.35594 -2.21685,-0.55196 0.34251,1.72823 0.48471,3.12951 0.0248,5.13993 -1.02099,-2.22965 -2.1074,-3.86753 -3.72937,-5.72577 -2.10413,-2.2086 -4.09604,-4.43756 -6.00117,-6.73474 -2.60706,0.003 -4.81212,-9.3e-4 -6.4079,0.002 0.021,-0.11473 -0.001,-0.24387 -0.0119,-0.37099 1.86329,4.3e-4 4.10412,-0.0438 5.86514,-0.0184 0.0872,0.0114 0.17451,0.0231 0.26175,0.0348 -0.38128,-0.46348 -0.74395,-0.94445 -1.11814,-1.41436 -0.0157,-3e-4 -0.0646,-2.7e-4 -0.0786,-9.9e-4 -1.09349,-0.0391 -2.1852,-0.10876 -3.27592,-0.19569 -0.0624,-0.005 -0.0431,-0.006 -0.10132,-0.0111 0.13236,-0.0465 0.28211,-0.085 0.38744,-0.14253 0.0447,-0.0245 0.0737,-0.069 0.11195,-0.10164 0.80382,-0.036 1.58873,-0.17806 2.38256,-0.27033 -0.64028,-0.81801 -1.27231,-1.64994 -1.89305,-2.49215 -0.85341,0.0709 -1.70868,0.15735 -2.55491,0.18162 -0.34732,0.01 -0.57278,0.0292 -0.90694,0.0398 -0.17699,-0.0473 -0.3548,-0.0915 -0.53207,-0.13785 1.31731,-0.0554 2.63459,-0.11491 3.95164,-0.14164 -0.2384,-0.32392 -0.47352,-0.65326 -0.7092,-0.98122 -0.0976,10e-4 -0.19516,0.002 -0.29276,0.003 0.087,-0.0129 0.1774,-0.0254 0.266,-0.0386 -0.37927,-0.52826 -0.76974,-1.03973 -1.14223,-1.57937 l -0.2896,-0.43005 c -0.0378,0.001 -0.11351,0.001 -0.14023,0.002 -1.08319,0.0196 -2.16664,0.0252 -3.25033,0.0333 -0.39427,-0.0388 -0.78834,-0.0794 -1.18261,-0.11822 1.05499,-0.17238 2.12757,-0.34952 3.18756,-0.52253 0.37388,0.0849 0.77329,0.18524 1.1683,0.28251 l -0.50692,-0.75305 c -0.0734,-0.0164 -0.14712,-0.0304 -0.22045,-0.0468 l -1.28856,0.31362 c 0.24165,0.0567 0.50436,0.12572 0.74118,0.17942 -1.08207,0.1762 -2.16382,0.35416 -3.24585,0.5307 -0.0975,-0.01 -0.19501,-0.0199 -0.29258,-0.0292 l -0.60918,0.14826 c 0.1164,1.11528 0.2693,2.21912 0.4208,3.32286 0.41555,0.0291 0.83065,0.08 1.24732,0.0702 0.0692,-10e-4 0.0692,-0.1034 0.0718,-0.20041 0.37926,-0.0114 0.75814,0.005 1.13745,-0.01 0.25375,0.0399 0.42555,0.0844 0.56756,0.14329 -0.74795,0.0263 -1.40894,0.0607 -2.10669,0.0906 -0.32713,-0.0455 -0.60741,-0.0127 -0.90801,-0.0142 0.19854,1.43836 0.42527,2.86802 0.67815,4.28943 0.10972,-4.5e-4 0.21284,-1.3e-4 0.32735,-0.001 0.0397,0.0318 0.0781,0.0641 0.11782,0.096 -0.10212,0.0807 -0.25662,0.16199 -0.38712,0.24298 0.87046,4.81165 2.06825,9.53109 3.40783,14.22453 0.65419,-0.064 1.30518,-0.14878 1.95603,-0.23887 -0.23746,0.16415 -0.39323,0.30574 -0.27883,0.34928 0.15445,0.0587 0.31468,0.10136 0.47036,0.15689 -0.20034,0.13182 -0.61256,0.002 -0.75924,0.2089 -0.0306,0.0434 -0.0178,0.0753 -0.0363,0.11537 -0.44318,-0.19235 -0.89438,-0.3642 -1.34001,-0.55028 0.10519,0.36834 0.20597,0.73771 0.31333,1.10569 0.071,0.0187 0.14202,0.0373 0.21283,0.0568 0.23132,0.11593 0.46466,0.22748 0.6937,0.34777 -0.29625,-0.11334 -0.59272,-0.22663 -0.88893,-0.34046 0.0756,0.25909 0.14497,0.51931 0.22159,0.77826 0.41239,0.13344 0.82471,0.2669 1.2372,0.40042 -0.17523,0.079 -0.61841,0.25617 -0.77743,0.31586 -0.004,-0.002 -0.0227,-0.0223 -0.0259,-0.0238 -0.088,-0.0453 -0.18099,-0.0801 -0.27211,-0.11871 0.80476,2.69244 1.65399,5.38384 2.53994,8.07366 0.44318,0.006 0.89753,0.0134 1.31065,0.0167 1.02158,0.23429 2.06147,0.37588 3.101,0.51767 l -0.61753,-2.53726 c -0.007,-2.7e-4 -0.0138,-0.002 -0.0208,-0.003 0.006,-0.006 0.01,-0.0126 0.0157,-0.0179 l -3.38794,-13.9198 c -0.13654,0.015 -0.27341,0.0292 -0.40534,0.0524 0.11451,-0.12523 0.21372,-0.26339 0.3222,-0.39401 l -1.90712,-7.83571 0.86607,1.12194 c 0.0176,-0.0704 0.035,-0.14075 0.0511,-0.21144 0.54639,-0.0194 1.093,-0.0332 1.63938,-0.0532 -0.52939,0.12576 -1.05558,0.26513 -1.58142,0.40701 l 16.27361,21.09963 c 0.22755,-0.12702 0.45735,-0.24992 0.68356,-0.37945 0.63174,0.31943 1.04983,0.50933 1.5368,0.74763 l 1.28749,-0.59881 c -0.45666,-0.3029 -0.87286,-0.58037 -1.27046,-0.8426 0.44911,-0.0609 0.89691,-0.1267 1.34912,-0.14745 0.79699,-0.0365 1.26311,-0.006 1.81428,0.005 l -0.22919,-1.23071 c -0.31349,-0.0277 -0.65169,-0.0601 -0.90998,-0.0801 0.11086,-0.0694 0.21999,-0.14133 0.33056,-0.2111 0.17344,-0.008 0.34056,-0.0159 0.52122,-0.0223 l -4.91297,-26.51206 c -0.31547,0.003 -0.62855,0.007 -1.07256,0.0118 -0.0957,-0.11991 -0.15829,-0.24359 -0.24358,-0.36486 0.0399,-0.0159 0.0788,-0.0328 0.11873,-0.049 0.37234,0.002 0.74502,-0.0133 1.11764,-0.0248 l -1.27313,-6.87438 z m 5.82982,-1.41891 0.70945,2.91491 6.80145,-1.6554 c 2.37062,10.39441 5.54977,20.34435 9.18151,30.32361 0.12325,0.0815 0.23848,0.1819 0.36991,0.23962 -0.0989,0.001 -0.19582,-0.0256 -0.29448,-0.0288 0.11458,0.31432 0.22255,0.6285 0.33804,0.9429 0.57714,0.14 1.15757,0.26109 1.7395,0.37465 l 2.28129,-1.19848 c -0.4005,-0.22266 -0.53668,-0.334 -0.0166,-0.15075 -0.002,-0.006 -0.002,-0.0113 -0.004,-0.017 -0.97918,-0.53692 -1.64059,-0.9071 -2.31142,-1.26263 -0.0963,-0.33655 -0.0741,-0.58708 0.0439,-0.78657 0.63711,0.15035 1.24791,0.26558 1.87204,0.39064 -0.59803,-2.53957 -1.22021,-5.0685 -1.86082,-7.58766 -0.13744,0.0861 -0.27377,0.17374 -0.41748,0.25035 -0.3586,-0.38955 -1.00255,-0.57238 -1.71658,-0.70989 -0.0443,-0.0386 -0.0902,-0.0754 -0.13429,-0.11405 0.41285,0.0219 0.82616,0.0428 1.23878,0.0688 0.30923,0.0197 0.62264,0.0864 0.93517,0.14222 -0.9983,-3.91012 -2.04122,-7.80406 -3.18399,-11.67789 l -0.157,0.0322 c -0.0352,-0.0375 -0.0649,-0.0687 -0.10025,-0.10625 0.11571,0.004 0.17558,0.007 0.23726,0.009 -0.66944,-2.26732 -1.36599,-4.52908 -2.09839,-6.7881 l -0.84718,-2.55574 1.577,-0.38382 c -0.33322,-0.12956 -0.66461,-0.26371 -1.00525,-0.37244 -0.34703,-0.11081 -0.70062,-0.19921 -1.05024,-0.3012 1.40655,0.0458 2.81271,0.0965 4.2189,0.14707 l 2.0894,-0.50853 0.15766,-1.88772 c -0.50971,-0.31809 -1.01865,-0.63741 -1.52744,-0.95693 l -1.90656,0.35951 c 0.50116,0.31085 1.00249,0.62155 1.50344,0.93263 -0.35793,0.003 -0.92892,0.0298 -1.28111,0.0304 -0.68408,-0.073 -1.15292,-0.13785 -1.93562,-0.2224 -0.29392,-0.0268 -1.12169,-0.094 -1.52122,-0.13028 l -5.35876,1.00878 c 0.003,0.008 0.006,0.0176 0.009,0.0262 -0.0412,-0.001 -0.0823,-0.003 -0.1236,-0.004 z m 2.95511,-0.39561 c 0.22081,0.0103 0.44173,0.0194 0.66255,0.0296 0.0633,0.0526 0.12735,0.10428 0.19087,0.15657 -0.13735,0.0164 -0.26983,0.0284 -0.40719,0.0448 -0.14956,-0.0782 -0.29231,-0.14706 -0.44623,-0.2311 z M 68.540123,371.72654 c -0.03287,0.26563 -0.07194,0.56349 -0.09642,0.8014 -0.406342,0.12309 -0.866696,0.29173 -1.323005,0.44462 0.470702,-0.41816 0.957549,-0.81822 1.419426,-1.24602 z M 266.581,323.5256 c 0.43921,10e-4 0.56101,0.009 1.10271,0.013 0.0289,0.12071 0.0521,0.23497 0.0689,0.34104 -0.23179,0.0269 -0.4568,0.0501 -0.68878,0.0772 -0.16235,-0.14226 -0.32302,-0.28624 -0.48286,-0.43126 z m -73.68548,18.26189 c 0.17596,-0.009 0.35634,0.0101 0.53106,-0.007 0.58372,-0.0554 1.16335,-0.1456 1.74419,-0.22551 l 0.001,-0.0866 z m -41.91765,10.31485 c -1.00325,0.27444 -1.778,0.46753 -3.4162,0.95408 0.36866,1.97121 0.73638,3.93691 1.10343,5.9046 0.0908,-0.0128 0.1834,-0.0251 0.27024,-0.0377 0.0736,0.0336 0.19017,0.0839 0.257,0.11434 -0.0547,0.24718 -0.10312,0.4954 -0.1548,0.74323 -0.0547,-0.0303 -0.14885,-0.0826 -0.24643,-0.137 1.86502,9.95989 3.88298,19.84439 7.52051,29.36298 l 2.65681,-0.64665 c 0.15401,-0.64082 0.28257,-1.30001 0.50727,-1.88836 0.0775,-0.20266 0.13007,-0.35926 0.20145,-0.55157 l -3.73572,-15.3488 4.62168,-2.15406 c 0.27554,-0.36415 0.44353,-0.59797 0.64591,-0.87281 -0.26166,-0.49331 -0.66403,-0.93025 -1.05505,-1.27897 0.53748,-0.0873 1.07455,-0.17693 1.61181,-0.26565 0.0892,0.087 0.17839,0.1966 0.26773,0.29063 0.47956,-0.84871 0.72192,-1.66522 1.23372,-3.67732 -0.74095,-4.2689 -1.63099,-8.26628 -5.28145,-10.86385 -1.23313,-0.27211 -2.034,-0.42917 -2.86079,-0.44749 -0.65037,0.15758 -1.30009,0.32368 -1.95251,0.43502 -0.71638,0.12228 -1.43124,0.25387 -2.14732,0.37791 -0.0168,-0.004 -0.031,-0.009 -0.0473,-0.0126 z m 128.23009,-31.11529 c 0.14406,10e-4 0.2759,0.003 0.41495,0.004 0.0237,0.006 0.0472,0.0125 0.0709,0.0189 l 0.01,-0.11507 z m -162.39368,39.62531 c 0.0833,-7.8e-4 0.16674,-0.004 0.25016,-0.005 0.0464,0.17765 0.0896,0.35613 0.13594,0.53377 -0.008,0.11748 -0.0199,0.2348 -0.0269,0.35228 -0.12048,-0.29369 -0.23913,-0.58755 -0.35927,-0.88145 z m 150.49597,-36.43607 c 0.15458,0.006 0.30902,0.0161 0.46364,0.0215 0.002,0.0544 0.0118,0.11697 0.0103,0.16634 0.37193,-0.0378 0.74379,-0.0756 1.1163,-0.11289 0.0759,0.003 0.15181,0.008 0.22779,0.0109 0.21485,0.16044 0.46201,0.33254 0.70553,0.50369 -0.8644,-0.0764 -1.2127,-0.0972 -2.0364,-0.16571 l -0.002,4.5e-4 -4.5e-4,-0.002 c 0.0101,-0.0608 -0.0129,-0.16382 -0.0108,-0.23455 -0.0791,0.008 -0.15838,0.0156 -0.23748,0.0236 -0.0806,-0.0686 -0.15633,-0.14265 -0.23647,-0.2118 z m -62.18461,16.64667 c 0.10055,-0.0162 0.20137,-0.0316 0.30206,-0.0474 -0.002,0.008 -0.0125,0.007 -0.0143,0.0155 -0.0949,0.0148 -0.18965,0.0301 -0.28451,0.0452 -0.002,-0.005 -0.002,-0.009 -0.003,-0.0133 z m 80.02175,-19.38393 c -0.0367,0.0785 -0.0757,0.13573 -0.11221,0.21626 0.003,1.17669 0.12302,2.26135 0.302,3.30555 0.59562,0.0198 1.19119,0.0534 1.78697,0.0575 -0.47144,0.0888 -1.31682,0.33241 -1.55454,0.42659 -0.0511,-0.002 -0.10231,-10e-4 -0.15348,-0.003 0.71973,3.60436 2.47811,6.52841 5.05787,9.41669 0.27513,0.0484 0.55039,0.0959 0.82326,0.16146 0.0181,0.0362 0.04,0.0703 0.0581,0.10646 0.004,0.008 0.0119,0.0241 0.0159,0.0324 -0.32005,-0.0714 -0.55314,-0.12527 -0.78571,-0.18064 0.34477,0.38255 0.68682,0.76559 1.05963,1.1492 4.01283,4.02767 5.36705,6.67522 6.0779,12.28616 l -6.09199,4.5703 1.07977,1.7192 c 0.13149,-0.1235 0.26198,-0.24874 0.40203,-0.35516 0.026,-0.0634 0.052,-0.12676 0.0784,-0.18993 1.28235,0.23277 2.55514,0.511 3.83277,0.76572 0.33445,-0.10158 0.76159,-0.23605 1.23412,-0.39686 -1.5978,-0.34705 -3.1897,-0.72191 -4.79559,-1.02989 0.002,-0.005 0.002,-0.009 0.005,-0.0133 1.02155,0.0745 2.04538,0.124 3.06599,0.20858 0.94883,0.0786 1.89409,0.19444 2.84036,0.30572 0.35727,-0.36943 0.65905,-0.68602 0.91316,-0.96401 -1.3513,-0.19607 -2.71256,-0.30203 -4.0767,-0.38873 0.51247,-0.1691 1.08109,-0.3871 1.65104,-0.7074 0.7999,0.23554 1.74776,0.54616 2.66506,0.84088 0.11587,-0.13112 0.18002,-0.24545 0.27846,-0.36729 -0.85562,-0.26632 -1.63319,-0.51167 -2.52996,-0.78128 0.38986,-0.26727 0.75061,-0.55554 0.98344,-0.91477 0.45065,0.56086 1.00343,1.10316 1.60575,1.61731 0.7564,-0.95888 1.10034,-1.7866 1.95374,-4.12996 -0.15329,-1.3555 -0.35971,-2.74061 -0.61431,-4.11801 -0.0715,-0.0176 -0.14222,-0.0389 -0.21425,-0.0544 -0.0371,-0.008 -0.0873,-0.016 -0.12444,-0.024 -0.055,-0.11072 -0.11861,-0.21654 -0.17228,-0.32794 0.14464,0.0103 0.28893,0.0237 0.43322,0.0373 -0.10884,-0.55456 -0.21354,-1.10981 -0.35446,-1.65451 -0.25073,-0.006 -0.5014,-0.013 -0.75213,-0.018 -0.14385,-0.38509 -0.30277,-0.76388 -0.45378,-1.14589 -0.0553,-0.21037 -0.0695,-0.26891 -0.11188,-0.44314 0.004,-0.0326 0.008,-0.065 0.012,-0.0975 0.26814,5.7e-4 0.53624,0.002 0.80436,0.001 -0.0835,-0.23938 -0.17595,-0.4736 -0.26892,-0.70845 -0.14795,5.1e-4 -0.29591,0.001 -0.44388,0.002 0.0138,-0.11366 0.0292,-0.22684 0.0438,-0.34033 0.011,-0.17668 0.0209,-0.35354 0.0319,-0.53036 -0.49337,-1.06145 -1.0944,-2.06638 -1.86116,-2.97229 -1.27586,-0.90798 -2.5481,-1.82106 -3.81812,-2.73721 -0.69697,-0.55974 -1.28321,-1.11873 -1.8223,-1.68119 -0.12795,0.1108 -0.2715,0.21181 -0.44143,0.29237 -0.16749,-0.002 -0.25435,-0.008 -0.42059,-0.0102 -0.002,-0.003 -0.003,-0.006 -0.005,-0.009 0.15794,0.006 0.25854,-0.18229 0.29185,-0.38662 0.20781,0.0195 0.34152,0.0324 0.51651,0.0492 -2.57869,-2.72029 -3.46594,-5.64628 -3.99817,-9.64648 -0.75155,0.0463 -1.45082,0.0904 -2.20182,0.15396 -0.85821,-0.21177 -1.59949,-0.35854 -1.67221,-0.37896 -0.018,-0.005 -0.036,-0.01 -0.0539,-0.0151 z m -78.52005,19.15311 c 0.50097,-0.0785 1.00255,-0.15302 1.50358,-0.23127 -0.495,0.0776 -0.98969,0.157 -1.48467,0.23471 -0.007,-10e-4 -0.0127,-0.002 -0.019,-0.003 z m -38.18837,9.44137 4.35951,0.99733 c 1.17116,4.1277 1.92035,6.07397 0.42158,10.18932 -3.65308,-4.96423 -3.65309,-4.96422 -4.78109,-11.18665 z m 17.0266,-4.10187 c 0.1764,0.01 0.48817,-0.003 0.67172,10e-4 -0.008,0.0906 -0.0192,0.18097 -0.0263,0.27174 -0.17896,-0.0759 -0.36615,-0.13524 -0.55111,-0.19954 -0.0316,-0.0244 -0.0615,-0.0508 -0.0943,-0.0736 z m 83.7038,-20.20372 c 0.65293,0.0557 0.98608,0.0909 1.70582,0.15366 -0.0397,0.007 -0.15834,0.0259 -0.19915,0.0324 -0.18318,0.002 -0.36637,0.003 -0.54954,0.005 -0.2733,-0.0229 -0.54571,-0.0556 -0.81903,-0.0781 -0.0464,-0.0373 -0.0918,-0.0759 -0.13809,-0.11314 z M 71.668839,373.80338 c 0.08244,0.0359 0.161772,0.0761 0.245648,0.10907 -0.11843,0.28117 -0.241572,0.55991 -0.362413,0.84 0.0082,-0.25565 0.062,-0.67253 0.07973,-0.93603 0.01104,-0.003 0.02624,-0.009 0.03704,-0.013 z m 78.514141,-18.88836 c -0.15102,0.58286 -0.29596,1.16774 -0.442,1.75188 -0.0676,0.009 -0.13537,0.0162 -0.20291,0.0253 -0.024,-0.0136 -0.0451,-0.0321 -0.0694,-0.0455 -0.28659,-0.1562 -0.59147,-0.27017 -0.89673,-0.38077 0.0239,-0.31236 0.0349,-0.62866 0.0343,-0.9491 0.52891,-0.12255 1.05638,-0.24783 1.57666,-0.40183 z m -81.94344,20.04463 c -0.03119,0.61532 -0.06087,1.1594 -0.105096,2.03773 -0.262695,-0.56958 -0.514943,-1.1208 -0.734225,-1.75305 0.263906,-0.0949 0.548065,-0.18096 0.839298,-0.28468 z M 193.8886,344.64542 c 0.13587,0.007 0.27194,0.008 0.40776,0.0157 0.12386,0.0267 0.23923,0.0472 0.41142,0.11297 -0.28834,-0.0126 -0.56426,-0.0346 -0.86993,-0.0471 0.003,-0.0388 0.029,-0.0581 0.0507,-0.0807 z m 45.83539,-11.09954 c 0.65916,-0.0287 1.06024,-0.0429 1.76929,-0.0728 -0.19177,0.0296 -0.37498,0.058 -0.56567,0.0874 -0.51949,2e-4 -0.74991,-0.0112 -1.20362,-0.0146 z m -87.56633,21.47951 4.35951,0.99733 c 0.82899,3.15104 1.89392,5.75881 1.15673,8.98121 l -2.67842,1.68109 -1.87155,-7.68958 -0.001,0.002 c -0.0435,-0.0224 -0.0873,-0.0442 -0.13081,-0.0666 0.0421,-0.0164 0.0727,-0.0308 0.10545,-0.0457 z m 32.78068,-7.65079 c 0.0866,0.009 0.16048,0.0151 0.24713,0.0242 0.0156,0.0135 0.023,0.0248 0.0395,0.0387 -0.0953,-0.0221 -0.19135,-0.0407 -0.28667,-0.0629 z m 84.46306,-19.50405 c 0.0454,-7.1e-4 0.0906,-0.002 0.13597,-0.003 0.0131,0.01 0.0276,0.0168 0.0406,0.0263 -0.0594,-0.01 -0.11646,-0.0119 -0.17654,-0.0234 z M 74.855846,375.34337 c 0.02842,0.24433 0.06428,0.40365 0.0937,0.69884 -0.133265,0.0178 -0.263556,0.0286 -0.395349,0.0439 0.103036,-0.24659 0.199468,-0.49584 0.301647,-0.74281 z m 18.858324,-4.46326 c 0.18834,0.12542 0.37589,0.25191 0.56278,0.37964 -0.0165,0.0382 -0.0321,0.0773 -0.0481,0.11623 -0.24043,-0.0479 -0.48059,-0.0982 -0.72103,-0.14614 0.0696,-0.11593 0.13822,-0.2331 0.20635,-0.34973 z m 178.27961,-42.97114 c 0.0682,0.002 0.1364,0.004 0.20461,0.006 0.19248,0.0212 0.38499,0.0406 0.57756,0.0604 -0.22994,-7.4e-4 -0.4598,-8e-5 -0.68973,-10e-4 -0.0305,-0.0223 -0.062,-0.0436 -0.0924,-0.066 z M 93.22074,372.75104 c 0.13311,0.008 0.24885,0.0267 0.38208,0.0337 -0.25482,0.64766 -0.50238,1.298 -0.7412,1.95134 0.10793,-0.66355 0.24072,-1.32303 0.35912,-1.98498 z m 194.5977,-45.73068 c 0.22689,0.0215 0.45393,0.0418 0.68081,0.0634 -0.32075,0.0339 -0.33072,0.0384 -0.63806,0.0709 -0.0259,-0.0355 -0.0373,-0.0822 -0.0428,-0.13434 z m -66.33291,16.95479 c 0.13938,0.0754 0.27471,0.14104 0.4,0.19813 -0.25206,0.0441 -0.34907,0.0582 -0.58281,0.0996 0.0652,-0.0964 0.12018,-0.19966 0.18281,-0.29777 z M 70.572671,380.7961 c 0.122479,-0.003 0.226498,0.007 0.362888,-0.004 0.0069,0.15017 0.007,0.30051 0.0152,0.45059 -0.02429,-10e-4 -0.05644,-0.003 -0.08146,-0.004 -0.09331,-0.15025 -0.190679,-0.29874 -0.296628,-0.4424 z M 238.71555,341.36152 c 0.21609,-0.005 0.4321,-0.0154 0.64818,-0.0211 -0.005,0.0558 -0.008,0.11311 -0.0127,0.17185 -0.28575,-0.0205 -0.5718,-0.034 -0.85754,-0.0546 0.077,-0.0318 0.14675,-0.0642 0.22181,-0.0962 z m 35.73336,-8.49408 c 0.37146,0.10785 0.70614,0.21918 1.00789,0.33362 -0.16886,0.0561 -0.34833,0.11217 -0.51788,0.16826 -0.16874,-0.17712 -0.32207,-0.32676 -0.49001,-0.50188 z m -54.42093,13.37812 c 0.0693,-0.01 0.13802,-0.0222 0.20721,-0.0324 1.11693,0.29518 2.17369,0.60648 3.30854,0.89131 0.0514,0.11995 0.1289,0.30325 0.17743,0.41512 -1.23153,-0.42379 -2.46004,-0.85559 -3.69318,-1.27409 z m 1.25698,-0.18733 c 0.56741,-0.0822 1.1337,-0.17233 1.70125,-0.25325 0.13083,0.30573 0.21564,0.5003 0.32032,0.74619 -0.68324,-0.16568 -1.33827,-0.32269 -2.02157,-0.49294 z m 51.50615,-12.53602 c 0.009,0.008 0.0161,0.0175 0.0245,0.0262 -0.007,6.5e-4 -0.0133,2.6e-4 -0.0199,0.001 -0.002,-0.009 -0.003,-0.0179 -0.005,-0.0271 z m 15.82268,-2.62288 c 0.0443,0.004 0.13289,0.0127 0.17894,0.0171 0.11981,0.0343 0.24009,0.0647 0.35987,0.0993 0.1176,0.19222 0.20694,0.40059 0.31985,0.59555 -0.42,-0.008 -0.78265,-0.015 -1.17372,-0.0239 0.0412,-0.15337 0.0762,-0.30819 0.11464,-0.46211 0.0462,-0.0769 0.1361,-0.15005 0.20037,-0.22566 z m -14.6885,3.89664 c 0.0281,-0.004 0.0321,-0.002 0.0607,-0.007 0.0245,0.0264 0.0491,0.0526 0.0734,0.0786 -0.11207,-0.004 -0.2242,-0.007 -0.33625,-0.011 0.0658,-0.0201 0.1364,-0.0414 0.20219,-0.0613 z m -0.78923,0.68861 c 0.11637,0.004 0.23268,0.009 0.34903,0.0137 -0.11121,0.0219 -0.2223,0.0449 -0.33343,0.0671 -0.005,-0.027 -0.0111,-0.0536 -0.0156,-0.0806 z M 46.699697,391.02682 c 0.275253,0.67923 0.586547,1.33228 1.110866,1.82219 0.05702,0.0533 0.117912,0.1022 0.176206,0.15411 -0.330166,-0.11086 -0.662,-0.21532 -0.99761,-0.30797 -0.216267,-0.48516 -0.437745,-0.96805 -0.655092,-1.4527 0.118586,-0.0792 0.239815,-0.1512 0.36563,-0.21563 z M 162.01705,364.06746 c 0.0213,-0.004 0.0427,-0.006 0.064,-0.01 0.0845,-0.008 0.16963,-0.0135 0.25406,-0.0217 -0.0376,0.0599 -0.0567,0.1351 -0.078,0.20794 -0.0808,-0.0577 -0.15875,-0.11983 -0.24002,-0.17676 z m 95.64348,-23.21223 c 0.029,10e-4 0.0581,0.002 0.0872,0.002 0.0695,0.17823 0.15469,0.43234 0.22541,0.62055 0.0519,-0.0897 0.18121,-0.25747 0.24764,-0.3618 0.0597,0.14451 0.12167,0.28817 0.18348,0.43174 -0.13836,-0.007 -0.27489,-0.0119 -0.41252,-0.0179 0.0569,0.15222 0.12225,0.33479 0.18165,0.49852 -0.11165,-6.5e-4 -0.22323,-0.004 -0.33488,-0.005 -0.013,-0.0873 -0.0273,-0.17435 -0.0396,-0.26175 0.0319,-0.063 0.0985,-0.16258 0.13978,-0.23503 -0.0589,-0.003 -0.11789,-0.005 -0.17665,-0.007 -0.0303,-0.22218 -0.0737,-0.44225 -0.10151,-0.66477 z m 0.27815,0.67204 c 0.0177,8.3e-4 0.0353,0.002 0.053,0.003 -0.006,-0.0157 -0.0128,-0.0361 -0.0186,-0.0517 -0.008,0.0122 -0.0277,0.0366 -0.0344,0.0486 z m -97.69029,23.19378 c 0.006,0.004 0.0115,0.01 0.0174,0.0138 -0.008,0.002 -0.0186,0.004 -0.0271,0.005 0.002,-0.006 0.007,-0.0122 0.01,-0.0184 z m 63.84523,-15.01858 c 0.007,2.6e-4 0.015,3.2e-4 0.0223,6.1e-4 2.9e-4,0.014 -4.3e-4,0.0281 -1.4e-4,0.0421 -0.0246,-0.007 -0.0516,-0.016 -0.0761,-0.0237 0.016,-0.008 0.0367,-0.0119 0.0536,-0.0191 z m -101.16209,24.78655 0.97162,-0.23648 c 3.12363,1.20757 3.12361,1.20758 6.04061,3.67575 1.24611,2.84501 1.95986,5.64051 2.12837,8.74472 -1.4102,2.78404 -1.41019,2.78403 -5.12036,4.33381 z m 100.88008,-24.53299 c 0.0966,0.0296 0.20904,0.0644 0.30638,0.0942 7.5e-4,0.0643 -5.1e-4,0.12852 6.4e-4,0.1928 -0.10401,-0.0853 -0.21301,-0.17905 -0.31999,-0.26585 0.004,-0.007 0.009,-0.0141 0.0129,-0.0213 z m 22.78191,-5.27349 c 0.009,0.008 0.0189,0.0152 0.0279,0.0234 -0.0164,0.003 -0.0339,0.005 -0.0503,0.008 0.008,-0.0101 0.0147,-0.0215 0.0224,-0.0316 z m 1.87901,-0.42315 c 0.3721,-0.07 0.74284,-0.14763 1.11506,-0.21713 0.0325,0.0414 0.077,0.0999 0.11137,0.14377 -0.23156,0.0449 -0.46022,0.10276 -0.69206,0.14632 -0.0571,0.0108 -0.0947,0.0123 -0.15126,0.0228 -0.12633,-0.0381 -0.25632,-0.0596 -0.38311,-0.0957 z m -27.39493,6.71989 c 0.018,0.0727 0.0373,0.14501 0.0551,0.21777 0.23853,0.0238 0.47711,0.0469 0.71533,0.0731 -0.25916,-0.0877 -0.51364,-0.19369 -0.77034,-0.29091 z m 56.08943,-12.40325 c 0.0944,0.0192 0.18894,0.0384 0.2834,0.0576 -0.14591,-0.005 -0.27855,-0.0101 -0.4258,-0.0146 0.0489,-0.0139 0.0937,-0.0278 0.14238,-0.0427 z m -183.30128,44.6959 c -0.016,0.30238 -0.0329,0.60956 -0.0329,0.86431 -3.3e-4,0.14481 0.0208,0.2844 0.0238,0.42839 -0.0161,0.003 -0.0323,0.005 -0.0483,0.008 -0.10535,0.0215 -0.0445,0.009 -0.14562,0.0295 0.0589,-0.44565 0.12706,-0.88873 0.20299,-1.32987 z m 200.53901,-48.31848 c 0.0212,0.004 0.0393,0.006 0.0606,0.009 -7.5e-4,0.005 -0.004,0.0101 -0.005,0.0151 -0.11643,0.0262 -0.23135,0.0416 -0.34766,0.0665 0.003,-8.5e-4 0.004,-0.003 0.007,-0.004 0.1319,-0.0492 0.17309,-0.0483 0.2843,-0.0873 z m -43.86519,10.71248 c 0.044,-0.009 0.0827,-0.0141 0.1271,-0.0229 0.11705,0.1 0.16757,0.16502 0.29204,0.26661 -0.13872,-0.0833 -0.27954,-0.162 -0.41914,-0.24372 z m 8.25558,-1.85856 c 0.0752,0.22731 0.13914,0.458 0.21127,0.6863 -0.0699,-0.0216 -0.14547,-0.0408 -0.2161,-0.062 -0.0731,-0.046 -0.13189,-0.0718 -0.2058,-0.11876 -0.13259,-0.0843 -0.2773,-0.19385 -0.41226,-0.28159 -0.005,-0.0169 -0.02,-0.0406 -0.0239,-0.0565 0.21589,-0.0546 0.43106,-0.11188 0.64671,-0.16745 z m -46.80736,11.92105 c 0.33474,0.011 0.66931,0.0259 1.00404,0.0371 0.0194,0.14862 0.041,0.297 0.0602,0.44566 -0.76011,0.0213 -0.0876,0.002 -1.12052,0.0295 0.0351,0.30575 0.0433,0.40828 0.0637,0.6418 0.25373,0.052 0.50594,0.09 0.76078,0.15254 -0.2575,0.10724 -0.49419,0.22001 -0.71357,0.33047 -0.0124,-0.14 -0.0318,-0.30727 -0.0472,-0.48301 -0.0628,-0.0132 -0.12428,-0.0133 -0.18694,-0.0249 0.056,-0.37698 0.12105,-0.75251 0.17945,-1.12916 z m -91.20797,22.34977 c 0.0944,0.3165 0.22246,0.60537 0.4835,0.7889 0.0699,0.0492 0.10995,0.0708 0.17737,0.11763 0.0563,0.32732 0.1118,0.65492 0.16868,0.98212 -0.24083,-0.0112 -0.42147,-0.0164 -0.64976,-0.0269 -0.0661,-0.62009 -0.12123,-1.24104 -0.17978,-1.86186 z m 53.7869,-11.29206 c 0.15224,0.21616 0.30319,0.43293 0.45547,0.64898 0.0183,0.0323 0.0356,0.0651 0.0538,0.0974 -0.17239,0.0213 -0.34482,0.0423 -0.51722,0.0636 0.002,-0.27011 0.004,-0.53996 0.008,-0.81 z m 67.03852,-16.31039 c 0.16161,0.0898 0.25704,0.16013 0.0899,0.17109 -0.031,0.002 -0.0605,-0.005 -0.0914,-0.004 -8e-5,-0.0577 0.0165,-0.10974 0.001,-0.16721 z m 9.90693,-2.15997 c 0.0819,0.0462 0.16632,0.088 0.24786,0.13467 0.0213,0.0709 -0.0232,0.11058 -0.0285,0.17176 -0.0422,-0.0151 -0.0845,-0.0267 -0.1267,-0.0416 -0.0278,-0.0886 -0.0675,-0.17334 -0.0922,-0.26301 z m 24.4186,-5.50299 c 0.0501,5.4e-4 0.29865,4.2e-4 0.3439,7.1e-4 0.0228,0.0206 0.16802,0.14574 0.19647,0.17129 -0.009,0.002 -0.0184,10e-4 -0.0275,0.003 -0.17113,-0.0576 -0.34218,-0.11627 -0.51289,-0.17468 z M 93.83443,387.15711 c 0.0835,-0.0121 0.16646,-0.0262 0.24989,-0.0387 0.0671,0.37768 0.15124,0.7518 0.24691,1.12187 -0.0247,0.0737 -0.0427,0.14948 -0.0705,0.2222 -0.0399,0.10431 -0.0985,0.20904 -0.14408,0.31648 -0.089,-0.54118 -0.18355,-1.08244 -0.28218,-1.62185 z m 164.92883,-38.76489 c 0.0203,0.0161 0.0318,0.0217 0.0514,0.0378 0.20141,0.16483 0.38005,0.35533 0.56367,0.54024 -0.34763,0.0236 -0.69447,0.0561 -1.04218,0.0788 0.0731,-0.25533 0.21798,-0.47326 0.42711,-0.65674 z m -88.35572,21.73798 c 0.0965,-0.0163 0.19322,-0.032 0.28974,-0.0484 -0.0956,0.0388 -0.19215,0.0756 -0.28778,0.11427 -9e-4,-0.0219 -8.8e-4,-0.0419 -0.002,-0.064 z m 53.48564,-12.96755 c 0.0981,-10e-4 0.19613,-0.004 0.29421,-0.005 9e-5,0.0181 -0.001,0.0365 -7.5e-4,0.0544 -0.0977,-0.0167 -0.19564,-0.0323 -0.2934,-0.0492 z m 54.15605,-12.75684 c 0.015,-0.003 0.0297,-0.005 0.0446,-0.007 0.0782,0.0689 0.14975,0.13175 0.23272,0.20467 -0.18701,-0.0424 -0.37389,-0.0828 -0.56103,-0.12476 0.0939,-0.0198 0.19003,-0.0543 0.28374,-0.0731 z m -54.32038,13.51044 c 0.15597,0.0247 0.31208,0.0481 0.46804,0.073 0.001,0.10897 0.002,0.21792 0.003,0.32689 -0.14503,-0.14908 -0.30848,-0.27404 -0.47122,-0.39991 z m -101.96898,25.87343 c 0.12792,0.008 0.25551,0.0239 0.38352,0.0313 0.0308,0.002 0.0646,0.003 0.0957,0.005 0.0319,0.24545 0.0692,0.48841 0.093,0.73719 -0.11495,0.0816 -0.22693,0.16729 -0.34121,0.24989 0.06,0.0263 0.11996,0.0527 0.18,0.0788 -0.0863,-0.006 -0.18406,-0.0163 -0.25854,-0.0211 -0.10775,0.0783 -0.21552,0.1562 -0.32264,0.23533 -0.0123,-0.0888 -0.0229,-0.17801 -0.0348,-0.26692 -0.17238,-0.0157 -0.33309,-0.0441 -0.40978,-0.0731 -0.0183,-0.078 -0.0371,-0.15583 -0.0549,-0.23388 0.01,-0.0161 0.061,-0.0643 0.0744,-0.0825 0.11906,0.0544 0.23925,0.10625 0.35856,0.15998 -0.0215,-0.1616 -0.0427,-0.32337 -0.0638,-0.48501 0.1066,-0.1127 0.14362,-0.1718 0.30052,-0.33446 z m -0.23674,0.81947 c 0.0103,0.0765 0.0215,0.15297 0.0317,0.22947 0.0809,0.007 0.25444,0.024 0.35745,0.0316 0.0262,-0.0191 0.0523,-0.0384 0.0785,-0.0573 -0.15558,-0.0684 -0.31271,-0.13394 -0.4677,-0.20376 z m 71.55497,-17.92224 c 0.0611,-0.008 0.12226,-0.0153 0.18346,-0.0225 0.20496,0.80825 0.39842,1.61986 0.61445,2.42543 0.0217,0.0638 0.0436,0.12735 0.0647,0.19131 -0.11183,-0.0345 -0.22599,-0.0624 -0.33859,-0.0945 -0.16339,-0.76815 -0.36091,-1.71597 -0.52398,-2.49972 z m 19.18231,-4.23056 c 0.0927,-0.004 0.18539,-0.009 0.27815,-0.0134 -0.0535,0.19381 -0.10558,0.38805 -0.15995,0.58165 -0.0352,-0.17002 -0.086,-0.41323 -0.1182,-0.56824 z m 29.95502,-6.89672 c 0.22664,0.12276 0.46758,0.21857 0.69136,0.34633 0.16857,0.0963 -0.41055,0.0278 -0.5794,-0.068 -0.0869,-0.0494 -0.0873,-0.17433 -0.11196,-0.27828 z M 108.13305,388.8109 c -0.004,0.0176 -0.007,0.0354 -0.0117,0.053 -0.014,0.0106 -0.029,0.02 -0.0428,0.0306 0.018,-0.0277 0.0361,-0.0555 0.0541,-0.0835 z m 66.42225,-15.93528 c 0.0964,0.14072 0.20105,0.27568 0.29822,0.41588 -0.11102,-0.025 -0.18296,-0.0382 -0.29709,-0.0644 -0.001,-0.11716 -3.4e-4,-0.23438 -0.001,-0.3515 z m -51.78696,14.87583 c 0.0508,0.19157 0.11545,0.37738 0.18314,0.5625 -0.2357,0.35814 -0.45507,0.75437 -0.67417,1.15308 -0.0232,-0.0741 -0.0634,-0.15043 -0.0806,-0.22363 -0.005,-0.0222 -0.011,-0.0442 -0.0162,-0.0664 -0.0451,-0.28762 -0.0773,-0.51358 -0.11828,-0.78331 0.2342,-0.2158 0.46275,-0.43619 0.70604,-0.64222 z m -34.97148,8.84937 c 0.0239,0.0165 0.0481,0.0325 0.0722,0.0488 -0.0114,0.0174 -0.0193,0.0368 -0.0312,0.0538 -0.004,0.007 -0.0213,0.006 -0.0271,0.0126 -0.004,-0.0384 -0.01,-0.0768 -0.014,-0.11521 z M 302.21534,344.6791 c 0.0128,0.003 0.0277,0.005 0.0402,0.008 7.7e-4,0.0245 5.7e-4,0.0482 10e-4,0.072 -0.0138,-0.0268 -0.0276,-0.0536 -0.0417,-0.0803 z m -23.61215,5.77709 c 0.1794,0.0759 0.35568,0.15844 0.54146,0.22602 -0.16781,-0.0355 -0.338,-0.0572 -0.50631,-0.0899 -0.013,-0.0452 -0.0223,-0.0909 -0.0352,-0.13618 z M 87.84632,397.027 c 0.0626,0.009 0.12526,0.0199 0.18788,0.0287 -0.0539,0.0652 -0.11015,0.12777 -0.16416,0.19273 -0.009,-0.0738 -0.0152,-0.14762 -0.0237,-0.22138 z m 88.91483,-20.01064 c 0.12736,0.0456 0.12259,0.0457 0.25571,0.0926 0.001,0.0103 0.005,0.0207 0.005,0.0308 -0.1218,-0.009 -0.24468,-0.0133 -0.36696,-0.0216 0.0342,-0.0348 0.0715,-0.0674 0.10579,-0.10214 z m -61.62704,16.34411 c 0.10541,0.005 0.2109,0.008 0.31638,0.011 -0.0495,0.0326 -0.10001,0.0629 -0.14981,0.0948 -0.0547,-0.0368 -0.11173,-0.0696 -0.16655,-0.10617 z m -13.81091,4.15743 c 0.72513,-0.0528 1.44838,-0.11898 2.17083,-0.19868 -0.31994,0.33606 -0.63596,0.67615 -0.94527,1.02205 -0.40845,-0.20347 -0.84344,-0.36774 -1.21923,-0.62389 -0.0614,-0.0418 -0.0912,-0.0711 -0.14758,-0.11082 0.0474,-0.0282 0.094,-0.0589 0.14125,-0.0887 z m 80.2661,-18.84237 c 0.0385,0.005 0.0743,0.0118 0.11264,0.0168 0.0218,0.0684 0.0426,0.13707 0.0641,0.20552 -0.008,-0.008 -0.0151,-0.0162 -0.0221,-0.0248 -0.053,-0.0642 -0.10188,-0.13319 -0.15462,-0.19756 z m -6.01499,1.64088 c 0.30459,0.10986 0.54905,0.18324 0.83008,0.2804 -0.0569,-0.0145 -0.1153,-0.0238 -0.17219,-0.0385 -0.09,-0.004 -0.23891,-0.097 -0.27039,-0.0127 -0.035,0.094 -0.0344,0.15941 -0.0422,0.23139 -0.11562,-0.15322 -0.22936,-0.30771 -0.34531,-0.4607 z m 68.28666,-15.7659 c 8e-4,0.004 0.004,0.007 0.004,0.0109 0.0832,0.0214 0.11573,0.0265 0.29083,0.08 -0.099,-0.0276 -0.19705,-0.0603 -0.29551,-0.0909 z m 0.0911,0.28337 c 0.0647,0.19582 0.12418,0.3913 0.18914,0.58716 0.39745,0.11878 0.76953,0.20814 1.18544,0.34467 0.1609,0.0528 -0.65403,-0.13529 -0.50557,-0.0539 0.34511,0.1893 0.72101,0.31572 1.08856,0.45869 l 1.30943,-0.3187 c -1.08273,-0.35693 -2.17494,-0.68739 -3.267,-1.01799 z m -127.89881,31.1633 c 0.0101,0.008 0.02,0.0151 0.0297,0.0229 -5.3e-4,0.0147 0.005,0.0266 0.004,0.0412 -0.0364,-0.0128 -0.0731,-0.025 -0.10966,-0.0376 0.0251,-0.009 0.0508,-0.0174 0.0759,-0.0265 z m 82.64663,-19.8479 c 0.30996,0.0702 0.61736,0.1479 0.92953,0.20996 -0.0321,0.0274 -0.0656,0.0532 -0.10739,0.0542 -0.3343,0.009 -0.66432,-0.0407 -0.99272,-0.1061 0.0584,-0.0509 0.11351,-0.10534 0.17058,-0.1581 z M 54.815898,411.3821 c 0.442473,0.33711 0.882105,0.67819 1.320028,1.0215 0.01594,0.13825 0.03023,0.27659 0.04668,0.41479 -0.04458,0.0312 -0.0897,0.0615 -0.134165,0.0929 -0.413507,-0.42733 -0.819467,-0.86185 -1.237379,-1.28483 -0.01309,-0.0411 -0.02689,-0.0819 -0.03998,-0.12294 0.01473,-0.0405 0.0302,-0.0809 0.04482,-0.12147 z M 229.79066,368.98014 c 0.32191,0.0633 0.49082,0.0729 0.89097,0.16709 0.12517,0.0295 0.25455,0.0309 0.38247,0.0436 -0.75673,0.48643 -1.52985,0.94445 -2.31701,1.38206 0.54129,-0.50156 0.91086,-0.99877 1.04357,-1.59274 z m 48.39621,-11.6203 c 0.0827,0.22438 0.15722,0.44877 0.24025,0.67321 0.11329,0.0218 0.2264,0.0444 0.33971,0.0661 l 0.87118,-0.45928 c -0.48409,-0.0905 -0.96703,-0.18898 -1.45114,-0.28 z m 37.72007,-9.01983 c 0.0296,10e-4 0.0592,-1e-5 0.0905,5.8e-4 -0.009,0.0497 -0.0174,0.0994 -0.0261,0.14905 -0.009,-7.7e-4 -0.0155,-0.006 -0.0255,-0.006 -0.0146,-0.0474 -0.0253,-0.0956 -0.0389,-0.14329 z m -200.81561,49.14765 c 0.14061,0.39547 0.24397,0.85266 0.0971,1.05982 -0.16121,0.22747 -0.50593,0.21598 -0.77687,0.30165 0.26191,-0.434 0.49318,-0.88945 0.67973,-1.36147 z m 80.47319,-19.53602 c 0.0234,-0.004 0.0471,-0.004 0.0707,-0.007 0.0275,0.20329 0.0483,0.40758 0.0744,0.61107 -0.0497,-0.20096 -0.096,-0.40278 -0.14498,-0.60393 z m 20.03051,-4.72645 c 0.005,-0.0123 0.0398,-0.0108 0.0692,-0.0128 0.0155,0.0424 0.0287,0.093 0.0461,0.13151 -0.0113,-0.009 -0.0258,-0.008 -0.0364,-0.0173 -0.062,-0.0503 -0.0858,-0.0829 -0.079,-0.10142 z m -110.23529,26.87023 c 0.038,0.0723 0.0838,0.14144 0.16415,0.18719 0.0549,0.0313 0.11484,0.0515 0.17051,0.0811 -0.22256,0.0699 -0.47122,0.14223 -0.72041,0.21153 0.12805,-0.15995 0.25069,-0.31563 0.38574,-0.47984 z m 143.01288,-34.55847 c -0.0506,0.0216 -0.0998,0.046 -0.15058,0.0668 -0.011,0.003 -0.0223,0.009 -0.0333,0.0121 l 0.19166,-0.0466 z M 76.346258,407.70574 c 0.318483,0.0708 0.338275,0.0835 -0.0038,0.0351 0.001,-0.0118 0.0022,-0.0232 0.0038,-0.0351 z m -22.157055,10.66539 c 0.100228,0.12764 0.18856,0.21309 0.292101,0.33295 l -0.252621,-0.0551 c 0.143818,0.36594 0.288006,0.73104 0.431819,1.09696 -0.463459,-0.12002 -0.770769,-0.2016 -1.084906,-0.28671 -0.03531,-0.0715 -0.05645,-0.14248 -0.02378,-0.21333 0.151983,-0.32885 0.38827,-0.60619 0.637383,-0.87476 z m -0.560156,1.48112 c 0.214741,0.0437 0.515637,-0.0466 0.644856,0.13051 0.02255,0.031 0.03706,0.0656 0.05054,0.10029 -0.233802,-0.0723 -0.467466,-0.14607 -0.695391,-0.23077 z M 315.33264,361.74672 c 0.18761,0.0567 0.3305,0.14078 0.57642,0.16323 -0.0636,0.12788 -0.12583,0.25632 -0.18998,0.38396 -0.0758,0.009 -0.15186,0.0139 -0.22751,0.0232 -0.14691,0.018 -0.43587,0.0619 -0.61257,0.0848 -2.4e-4,-0.002 -8e-4,-0.004 -0.002,-0.006 0.15785,-0.19095 0.30548,-0.42385 0.45503,-0.64946 z M 214.2321,388.51236 c 0.26803,-0.0228 0.53569,-0.0389 0.80132,-0.0443 -0.002,0.0106 -0.003,0.0203 -0.005,0.0312 -0.22562,0.0325 -0.45186,0.0596 -0.67797,0.0886 -0.0459,-0.0294 -0.0689,-0.0435 -0.11889,-0.0756 z m 0.81553,-0.0437 c 0.0454,-7e-4 0.0891,0.008 0.13448,0.007 -0.0169,0.002 -0.0338,0.004 -0.0507,0.006 -0.0279,-0.005 -0.0559,-0.009 -0.0838,-0.0143 z m 3.47261,-0.65624 0.0807,0.0346 c -0.0217,0.005 -0.0433,0.01 -0.065,0.0138 -0.0233,-0.002 -0.0467,-0.004 -0.07,-0.008 0.017,-0.0151 0.0429,-0.022 0.0543,-0.0413 z m 72.92063,-16.62239 c 0.34934,-0.0544 0.69895,-0.10693 1.04838,-0.16069 0.13929,0.0519 0.27813,0.10462 0.4178,0.15562 -0.0352,0.0404 -0.0752,0.0754 -0.11062,0.11537 -0.3274,0.0374 -0.65478,0.0737 -0.98222,0.11041 -0.12069,-0.0717 -0.25021,-0.1473 -0.37334,-0.22071 z M 67.578583,426.36508 c -0.50504,-0.0623 0.784639,0.10485 1.514156,0.20035 0.01039,0.009 0.03056,0.0277 0.04099,0.0362 -0.518536,-0.0751 -1.035574,-0.17241 -1.555142,-0.2366 z M 275.61161,375.8588 c 0.007,0.10795 0.0133,0.20904 0.0283,0.38911 -0.0552,0.048 -0.0659,0.061 -0.11385,0.10207 -0.16986,-0.10453 -0.34268,-0.20351 -0.51014,-0.31204 0.19779,-0.0626 0.39812,-0.11563 0.59563,-0.17914 z m -161.20678,39.43091 c 0.0497,-0.008 0.0991,-0.0169 0.1489,-0.0242 0.0184,0.0277 0.0659,0.0909 0.0854,0.11991 -0.0778,-0.0328 -0.15653,-0.0629 -0.23436,-0.0958 z m 158.62434,-38.40436 c 0.34119,0.0976 0.84875,0.29112 1.5655,0.62605 -0.16975,-0.0204 -0.33955,-0.0407 -0.50934,-0.061 -0.0532,-0.022 -0.14383,-0.0496 -0.18337,-0.068 -0.23336,-0.10886 -0.54556,-0.29284 -0.87279,-0.49716 z m -137.6943,33.53335 c 0.37289,0.0249 0.74669,0.0308 1.11949,0.0572 -0.50139,0.0627 -1.00571,0.0885 -1.5082,0.13793 0.13207,-0.0682 0.25758,-0.12769 0.38871,-0.19512 z m 14.4871,-3.35311 c 0.0113,0.0125 0.0199,0.0265 0.0315,0.0385 -0.0129,7e-5 -0.0294,5.1e-4 -0.0422,-1.3e-4 0.005,-0.0125 0.007,-0.0263 0.011,-0.0388 z m -35.01092,8.56346 c 9e-4,0.002 0.004,0.005 0.006,0.006 -0.0187,0.007 -0.0369,0.0129 -0.0556,0.0195 0.0164,-0.009 0.0334,-0.0173 0.0499,-0.0262 z m 132.16354,-31.90983 c 0.15123,0.004 0.36205,0.007 0.51724,0.0108 -0.19291,0.0744 -0.37856,0.15673 -0.58167,0.21996 0.0623,-0.0606 0.0847,-0.1374 0.0645,-0.23078 z m -2.01217,0.66061 c 0.16361,-0.0511 0.42571,-0.0718 0.65908,-0.10011 -0.30608,0.0638 -0.60021,0.11549 -0.89871,0.16446 0.0789,-0.0243 0.16089,-0.0395 0.23963,-0.0643 z M 96.72085,420.58882 c 0.51139,-0.089 0.90668,-0.17302 1.35077,-0.26443 -0.36624,0.10519 -0.73273,0.21068 -1.09863,0.31764 -0.0854,-0.0157 -0.17015,-0.0344 -0.25548,-0.0504 8.4e-4,-7.9e-4 0.003,-0.002 0.003,-0.003 z" />
</svg>
